<svg xmlns="http://www.w3.org/2000/svg" xmlns:xlink="http://www.w3.org/1999/xlink" width="1920" zoomAndPan="magnify" viewBox="0 0 1440 809.999993" height="1080" preserveAspectRatio="xMidYMid meet" version="1.0"><defs><clipPath id="8228cfe200"><path d="M 660 338 L 808 338 L 808 540.75 L 660 540.75 Z M 660 338 " clip-rule="nonzero"/></clipPath></defs><path fill="#ffffff" d="M 617.273438 428.945312 C 616.207031 428.945312 615.144531 428.996094 614.082031 429.101562 C 613.019531 429.207031 611.96875 429.363281 610.921875 429.570312 C 609.875 429.777344 608.84375 430.039062 607.824219 430.347656 C 606.800781 430.65625 605.800781 431.015625 604.816406 431.425781 C 603.828125 431.832031 602.867188 432.289062 601.925781 432.792969 C 600.988281 433.296875 600.074219 433.84375 599.1875 434.4375 C 598.300781 435.03125 597.445312 435.664062 596.621094 436.34375 C 595.796875 437.019531 595.007812 437.734375 594.253906 438.488281 C 593.5 439.246094 592.785156 440.035156 592.109375 440.859375 C 591.433594 441.683594 590.796875 442.542969 590.207031 443.429688 C 589.613281 444.316406 589.066406 445.230469 588.5625 446.171875 C 588.0625 447.113281 587.605469 448.078125 587.199219 449.0625 C 586.789062 450.050781 586.429688 451.054688 586.121094 452.074219 C 585.8125 453.097656 585.554688 454.132812 585.34375 455.179688 C 585.136719 456.226562 584.980469 457.28125 584.875 458.34375 C 584.773438 459.40625 584.71875 460.46875 584.71875 461.539062 C 584.71875 462.605469 584.773438 463.667969 584.875 464.730469 C 584.980469 465.792969 585.136719 466.847656 585.34375 467.894531 C 585.554688 468.941406 585.8125 469.976562 586.121094 471 C 586.429688 472.019531 586.789062 473.023438 587.199219 474.011719 C 587.605469 474.996094 588.0625 475.960938 588.5625 476.902344 C 589.066406 477.84375 589.613281 478.757812 590.207031 479.644531 C 590.796875 480.535156 591.433594 481.390625 592.109375 482.214844 C 592.785156 483.039062 593.5 483.828125 594.253906 484.585938 C 595.007812 485.339844 595.796875 486.054688 596.621094 486.734375 C 597.445312 487.410156 598.300781 488.046875 599.1875 488.636719 C 600.074219 489.230469 600.988281 489.78125 601.925781 490.28125 C 602.867188 490.785156 603.828125 491.242188 604.816406 491.648438 C 605.800781 492.058594 606.800781 492.417969 607.824219 492.726562 C 608.84375 493.039062 609.875 493.296875 610.921875 493.503906 C 611.96875 493.714844 613.019531 493.871094 614.082031 493.972656 C 615.144531 494.078125 616.207031 494.132812 617.273438 494.132812 C 618.339844 494.132812 619.402344 494.078125 620.464844 493.972656 C 621.523438 493.871094 622.578125 493.714844 623.625 493.503906 C 624.667969 493.296875 625.703125 493.039062 626.722656 492.726562 C 627.742188 492.417969 628.746094 492.058594 629.730469 491.648438 C 630.714844 491.242188 631.675781 490.785156 632.617188 490.28125 C 633.558594 489.78125 634.472656 489.230469 635.359375 488.636719 C 636.246094 488.046875 637.101562 487.410156 637.925781 486.734375 C 638.746094 486.054688 639.535156 485.339844 640.289062 484.585938 C 641.042969 483.828125 641.761719 483.039062 642.4375 482.214844 C 643.113281 481.390625 643.746094 480.535156 644.339844 479.644531 C 644.929688 478.757812 645.480469 477.84375 645.980469 476.902344 C 646.484375 475.960938 646.941406 474.996094 647.347656 474.011719 C 647.753906 473.023438 648.113281 472.019531 648.421875 471 C 648.734375 469.976562 648.992188 468.941406 649.199219 467.894531 C 649.40625 466.847656 649.5625 465.792969 649.667969 464.730469 C 649.773438 463.667969 649.824219 462.605469 649.824219 461.539062 C 649.824219 460.46875 649.769531 459.40625 649.664062 458.34375 C 649.558594 457.28125 649.402344 456.226562 649.191406 455.183594 C 648.984375 454.136719 648.722656 453.101562 648.414062 452.082031 C 648.101562 451.058594 647.742188 450.058594 647.335938 449.070312 C 646.925781 448.085938 646.472656 447.121094 645.96875 446.183594 C 645.464844 445.242188 644.917969 444.328125 644.324219 443.441406 C 643.734375 442.554688 643.097656 441.699219 642.421875 440.871094 C 641.746094 440.046875 641.03125 439.257812 640.277344 438.503906 C 639.523438 437.75 638.734375 437.035156 637.910156 436.355469 C 637.085938 435.679688 636.234375 435.042969 635.347656 434.449219 C 634.460938 433.859375 633.546875 433.308594 632.609375 432.804688 C 631.667969 432.300781 630.707031 431.847656 629.722656 431.4375 C 628.738281 431.027344 627.738281 430.667969 626.71875 430.359375 C 625.699219 430.046875 624.664062 429.785156 623.621094 429.578125 C 622.574219 429.367188 621.523438 429.210938 620.460938 429.105469 C 619.402344 429 618.339844 428.945312 617.273438 428.945312 Z M 617.273438 489.496094 C 616.355469 489.496094 615.445312 489.449219 614.53125 489.359375 C 613.621094 489.269531 612.71875 489.136719 611.820312 488.957031 C 610.921875 488.777344 610.035156 488.554688 609.160156 488.289062 C 608.28125 488.023438 607.421875 487.714844 606.578125 487.363281 C 605.730469 487.011719 604.902344 486.621094 604.097656 486.191406 C 603.289062 485.757812 602.503906 485.285156 601.746094 484.777344 C 600.984375 484.269531 600.25 483.722656 599.542969 483.140625 C 598.832031 482.558594 598.15625 481.945312 597.507812 481.296875 C 596.863281 480.648438 596.25 479.96875 595.667969 479.261719 C 595.085938 478.554688 594.542969 477.816406 594.035156 477.054688 C 593.527344 476.292969 593.054688 475.507812 592.625 474.699219 C 592.191406 473.890625 591.800781 473.0625 591.453125 472.214844 C 591.101562 471.371094 590.792969 470.507812 590.527344 469.628906 C 590.261719 468.753906 590.042969 467.867188 589.863281 466.964844 C 589.683594 466.066406 589.550781 465.160156 589.460938 464.25 C 589.371094 463.335938 589.328125 462.421875 589.328125 461.507812 C 589.328125 460.589844 589.371094 459.675781 589.460938 458.765625 C 589.550781 457.851562 589.6875 456.945312 589.867188 456.046875 C 590.042969 455.148438 590.265625 454.261719 590.53125 453.382812 C 590.800781 452.507812 591.105469 451.644531 591.457031 450.796875 C 591.808594 449.953125 592.199219 449.125 592.632812 448.316406 C 593.0625 447.507812 593.535156 446.722656 594.042969 445.960938 C 594.550781 445.199219 595.097656 444.464844 595.675781 443.753906 C 596.257812 443.046875 596.871094 442.367188 597.519531 441.722656 C 598.167969 441.074219 598.84375 440.457031 599.554688 439.878906 C 600.261719 439.296875 600.996094 438.75 601.757812 438.242188 C 602.519531 437.734375 603.304688 437.261719 604.109375 436.832031 C 604.917969 436.398438 605.746094 436.007812 606.589844 435.660156 C 607.4375 435.308594 608.296875 435 609.171875 434.734375 C 610.050781 434.46875 610.9375 434.246094 611.835938 434.070312 C 612.734375 433.890625 613.636719 433.757812 614.546875 433.667969 C 615.460938 433.578125 616.371094 433.535156 617.289062 433.535156 C 618.203125 433.535156 619.117188 433.578125 620.027344 433.671875 C 620.9375 433.761719 621.84375 433.894531 622.742188 434.074219 C 623.636719 434.253906 624.523438 434.476562 625.402344 434.742188 C 626.277344 435.011719 627.136719 435.320312 627.984375 435.671875 C 628.828125 436.023438 629.65625 436.414062 630.460938 436.847656 C 631.269531 437.277344 632.050781 437.75 632.8125 438.257812 C 633.574219 438.769531 634.308594 439.316406 635.015625 439.898438 C 635.722656 440.480469 636.398438 441.09375 637.046875 441.742188 C 637.691406 442.390625 638.308594 443.070312 638.886719 443.777344 C 639.46875 444.488281 640.011719 445.222656 640.519531 445.984375 C 641.027344 446.75 641.496094 447.535156 641.929688 448.34375 C 642.359375 449.152344 642.75 449.980469 643.097656 450.828125 C 643.449219 451.671875 643.753906 452.535156 644.019531 453.414062 C 644.285156 454.289062 644.507812 455.179688 644.683594 456.078125 C 644.863281 456.976562 644.996094 457.882812 645.085938 458.792969 C 645.175781 459.707031 645.21875 460.621094 645.21875 461.539062 C 645.214844 462.453125 645.171875 463.367188 645.078125 464.277344 C 644.988281 465.1875 644.851562 466.09375 644.671875 466.992188 C 644.492188 467.890625 644.269531 468.777344 644.003906 469.652344 C 643.738281 470.527344 643.429688 471.390625 643.078125 472.234375 C 642.726562 473.082031 642.335938 473.90625 641.902344 474.714844 C 641.472656 475.519531 641 476.304688 640.492188 477.066406 C 639.984375 477.828125 639.441406 478.5625 638.859375 479.269531 C 638.277344 479.976562 637.664062 480.652344 637.019531 481.300781 C 636.371094 481.949219 635.695312 482.5625 634.988281 483.144531 C 634.28125 483.722656 633.546875 484.269531 632.785156 484.777344 C 632.023438 485.285156 631.242188 485.757812 630.433594 486.1875 C 629.628906 486.621094 628.800781 487.011719 627.957031 487.359375 C 627.113281 487.710938 626.253906 488.019531 625.378906 488.285156 C 624.503906 488.550781 623.617188 488.773438 622.71875 488.953125 C 621.824219 489.132812 620.917969 489.269531 620.007812 489.359375 C 619.097656 489.449219 618.1875 489.492188 617.273438 489.496094 Z M 617.273438 489.496094 " fill-opacity="1" fill-rule="nonzero"/><path fill="#ffffff" d="M 625.679688 442.253906 C 624.695312 441.835938 623.664062 441.628906 622.59375 441.628906 L 620.015625 441.628906 C 619.492188 441.632812 618.980469 441.683594 618.46875 441.785156 C 617.960938 441.890625 617.464844 442.039062 616.984375 442.242188 C 616.503906 442.441406 616.046875 442.683594 615.617188 442.976562 C 615.183594 443.265625 614.785156 443.59375 614.417969 443.960938 C 614.050781 444.328125 613.71875 444.730469 613.429688 445.164062 C 613.140625 445.59375 612.898438 446.050781 612.699219 446.53125 C 612.5 447.011719 612.347656 447.507812 612.246094 448.019531 C 612.140625 448.53125 612.089844 449.046875 612.089844 449.566406 L 612.089844 455.609375 L 609.785156 455.609375 C 609.480469 455.609375 609.1875 455.667969 608.902344 455.785156 C 608.621094 455.902344 608.371094 456.070312 608.15625 456.285156 C 607.941406 456.5 607.773438 456.75 607.65625 457.03125 C 607.539062 457.316406 607.480469 457.609375 607.480469 457.914062 C 607.480469 458.222656 607.539062 458.515625 607.65625 458.796875 C 607.773438 459.082031 607.941406 459.332031 608.15625 459.546875 C 608.371094 459.761719 608.621094 459.929688 608.902344 460.046875 C 609.1875 460.164062 609.480469 460.222656 609.785156 460.222656 L 612.089844 460.222656 L 612.089844 479.160156 C 612.089844 479.464844 612.148438 479.761719 612.265625 480.042969 C 612.382812 480.324219 612.546875 480.574219 612.761719 480.792969 C 612.980469 481.007812 613.230469 481.175781 613.511719 481.292969 C 613.792969 481.410156 614.085938 481.46875 614.394531 481.46875 C 614.699219 481.46875 614.992188 481.410156 615.273438 481.292969 C 615.554688 481.175781 615.804688 481.007812 616.023438 480.792969 C 616.238281 480.574219 616.402344 480.324219 616.519531 480.042969 C 616.636719 479.761719 616.695312 479.464844 616.695312 479.160156 L 616.695312 460.269531 L 622.132812 460.269531 C 622.4375 460.269531 622.734375 460.210938 623.015625 460.09375 C 623.296875 459.976562 623.546875 459.808594 623.761719 459.59375 C 623.980469 459.375 624.144531 459.128906 624.261719 458.84375 C 624.378906 458.5625 624.4375 458.269531 624.4375 457.960938 C 624.4375 457.65625 624.378906 457.363281 624.261719 457.078125 C 624.144531 456.796875 623.980469 456.546875 623.761719 456.332031 C 623.546875 456.113281 623.296875 455.949219 623.015625 455.832031 C 622.734375 455.714844 622.4375 455.65625 622.132812 455.65625 L 616.695312 455.65625 L 616.695312 449.613281 C 616.699219 449.171875 616.785156 448.75 616.957031 448.34375 C 617.125 447.9375 617.363281 447.582031 617.675781 447.269531 C 617.984375 446.957031 618.34375 446.71875 618.746094 446.550781 C 619.152344 446.378906 619.574219 446.292969 620.015625 446.289062 L 622.59375 446.289062 C 623.042969 446.292969 623.472656 446.382812 623.882812 446.566406 C 624.171875 446.6875 624.46875 446.746094 624.777344 446.746094 C 625.085938 446.746094 625.382812 446.6875 625.671875 446.570312 C 625.957031 446.453125 626.210938 446.285156 626.429688 446.066406 C 626.648438 445.847656 626.816406 445.597656 626.9375 445.308594 C 627.054688 445.023438 627.117188 444.726562 627.117188 444.414062 C 627.117188 444.105469 627.058594 443.808594 626.941406 443.519531 C 626.824219 443.234375 626.65625 442.980469 626.4375 442.761719 C 626.21875 442.542969 625.96875 442.371094 625.679688 442.253906 Z M 625.679688 442.253906 " fill-opacity="1" fill-rule="nonzero"/><path fill="#ffffff" d="M 624.320312 347.976562 C 625.386719 347.976562 626.453125 347.925781 627.511719 347.820312 C 628.574219 347.714844 629.628906 347.558594 630.671875 347.351562 C 631.71875 347.144531 632.75 346.882812 633.773438 346.574219 C 634.792969 346.265625 635.792969 345.90625 636.78125 345.496094 C 637.765625 345.089844 638.726562 344.632812 639.667969 344.128906 C 640.609375 343.625 641.519531 343.078125 642.40625 342.484375 C 643.292969 341.890625 644.148438 341.257812 644.972656 340.578125 C 645.796875 339.902344 646.585938 339.1875 647.339844 338.429688 C 648.09375 337.675781 648.808594 336.886719 649.484375 336.0625 C 650.164062 335.238281 650.796875 334.378906 651.390625 333.492188 C 651.980469 332.605469 652.527344 331.691406 653.03125 330.75 C 653.535156 329.808594 653.988281 328.84375 654.398438 327.855469 C 654.804688 326.871094 655.164062 325.867188 655.472656 324.847656 C 655.78125 323.824219 656.042969 322.789062 656.25 321.742188 C 656.457031 320.695312 656.613281 319.640625 656.71875 318.578125 C 656.824219 317.515625 656.875 316.453125 656.875 315.382812 C 656.875 314.316406 656.824219 313.25 656.71875 312.191406 C 656.613281 311.128906 656.457031 310.074219 656.25 309.027344 C 656.042969 307.976562 655.78125 306.945312 655.472656 305.921875 C 655.164062 304.902344 654.804688 303.898438 654.398438 302.910156 C 653.988281 301.925781 653.535156 300.960938 653.03125 300.019531 C 652.527344 299.078125 651.980469 298.164062 651.390625 297.277344 C 650.796875 296.386719 650.164062 295.53125 649.484375 294.707031 C 648.808594 293.882812 648.09375 293.089844 647.339844 292.335938 C 646.585938 291.582031 645.796875 290.867188 644.972656 290.1875 C 644.148438 289.511719 643.292969 288.875 642.40625 288.285156 C 641.519531 287.691406 640.609375 287.140625 639.667969 286.640625 C 638.726562 286.136719 637.765625 285.679688 636.78125 285.269531 C 635.792969 284.863281 634.792969 284.503906 633.773438 284.195312 C 632.75 283.882812 631.71875 283.625 630.671875 283.417969 C 629.628906 283.207031 628.574219 283.050781 627.511719 282.949219 C 626.453125 282.84375 625.386719 282.789062 624.320312 282.789062 C 623.257812 282.789062 622.191406 282.84375 621.132812 282.949219 C 620.070312 283.050781 619.015625 283.207031 617.972656 283.417969 C 616.925781 283.625 615.894531 283.882812 614.871094 284.195312 C 613.851562 284.503906 612.851562 284.863281 611.863281 285.269531 C 610.878906 285.679688 609.917969 286.136719 608.976562 286.640625 C 608.035156 287.140625 607.125 287.691406 606.238281 288.285156 C 605.351562 288.875 604.496094 289.511719 603.671875 290.1875 C 602.847656 290.867188 602.058594 291.582031 601.304688 292.335938 C 600.550781 293.089844 599.835938 293.882812 599.160156 294.707031 C 598.480469 295.53125 597.847656 296.386719 597.253906 297.277344 C 596.664062 298.164062 596.117188 299.078125 595.613281 300.019531 C 595.109375 300.960938 594.65625 301.925781 594.246094 302.910156 C 593.839844 303.898438 593.480469 304.902344 593.171875 305.921875 C 592.863281 306.945312 592.601562 307.976562 592.394531 309.027344 C 592.1875 310.074219 592.03125 311.128906 591.925781 312.191406 C 591.820312 313.25 591.769531 314.316406 591.769531 315.382812 C 591.769531 316.453125 591.824219 317.515625 591.929688 318.578125 C 592.035156 319.640625 592.191406 320.695312 592.402344 321.738281 C 592.609375 322.785156 592.871094 323.820312 593.179688 324.839844 C 593.492188 325.863281 593.851562 326.863281 594.257812 327.851562 C 594.667969 328.835938 595.125 329.800781 595.625 330.738281 C 596.128906 331.679688 596.675781 332.59375 597.269531 333.480469 C 597.863281 334.367188 598.496094 335.222656 599.171875 336.050781 C 599.847656 336.875 600.5625 337.664062 601.316406 338.417969 C 602.070312 339.171875 602.859375 339.886719 603.683594 340.566406 C 604.507812 341.242188 605.363281 341.878906 606.246094 342.472656 C 607.132812 343.0625 608.046875 343.613281 608.984375 344.117188 C 609.925781 344.621094 610.886719 345.074219 611.871094 345.484375 C 612.855469 345.894531 613.859375 346.253906 614.878906 346.5625 C 615.898438 346.875 616.929688 347.136719 617.972656 347.34375 C 619.019531 347.554688 620.074219 347.710938 621.132812 347.816406 C 622.191406 347.921875 623.257812 347.976562 624.320312 347.976562 Z M 624.320312 287.402344 C 625.238281 287.402344 626.152344 287.449219 627.0625 287.539062 C 627.972656 287.628906 628.875 287.761719 629.773438 287.941406 C 630.671875 288.121094 631.558594 288.34375 632.433594 288.609375 C 633.308594 288.875 634.171875 289.183594 635.015625 289.535156 C 635.863281 289.882812 636.6875 290.277344 637.496094 290.707031 C 638.300781 291.140625 639.085938 291.609375 639.847656 292.121094 C 640.609375 292.628906 641.34375 293.171875 642.050781 293.753906 C 642.757812 294.335938 643.433594 294.949219 644.082031 295.597656 C 644.730469 296.246094 645.34375 296.925781 645.925781 297.632812 C 646.503906 298.34375 647.050781 299.078125 647.558594 299.839844 C 648.066406 300.601562 648.535156 301.386719 648.96875 302.195312 C 649.398438 303.003906 649.789062 303.828125 650.140625 304.675781 C 650.492188 305.523438 650.796875 306.386719 651.0625 307.261719 C 651.328125 308.140625 651.550781 309.027344 651.730469 309.925781 C 651.910156 310.824219 652.042969 311.730469 652.132812 312.640625 C 652.222656 313.554688 652.265625 314.46875 652.265625 315.382812 C 652.265625 316.300781 652.222656 317.214844 652.132812 318.125 C 652.042969 319.039062 651.910156 319.945312 651.730469 320.84375 C 651.550781 321.742188 651.328125 322.628906 651.0625 323.507812 C 650.796875 324.382812 650.492188 325.246094 650.140625 326.09375 C 649.789062 326.9375 649.398438 327.765625 648.96875 328.574219 C 648.535156 329.382812 648.066406 330.167969 647.558594 330.929688 C 647.050781 331.691406 646.503906 332.425781 645.925781 333.136719 C 645.34375 333.84375 644.730469 334.519531 644.082031 335.167969 C 643.433594 335.816406 642.757812 336.433594 642.050781 337.011719 C 641.34375 337.59375 640.609375 338.140625 639.847656 338.648438 C 639.085938 339.160156 638.300781 339.628906 637.496094 340.0625 C 636.6875 340.492188 635.863281 340.882812 635.015625 341.234375 C 634.171875 341.585938 633.308594 341.894531 632.433594 342.160156 C 631.558594 342.425781 630.671875 342.648438 629.773438 342.828125 C 628.875 343.003906 627.972656 343.140625 627.0625 343.230469 C 626.152344 343.320312 625.238281 343.363281 624.320312 343.363281 C 623.40625 343.363281 622.492188 343.320312 621.582031 343.230469 C 620.671875 343.140625 619.769531 343.003906 618.871094 342.828125 C 617.972656 342.648438 617.085938 342.425781 616.210938 342.160156 C 615.335938 341.894531 614.472656 341.585938 613.628906 341.234375 C 612.78125 340.882812 611.957031 340.492188 611.148438 340.0625 C 610.339844 339.628906 609.558594 339.15625 608.796875 338.648438 C 608.035156 338.140625 607.300781 337.59375 606.59375 337.011719 C 605.886719 336.433594 605.207031 335.816406 604.5625 335.167969 C 603.914062 334.519531 603.300781 333.84375 602.71875 333.136719 C 602.140625 332.425781 601.59375 331.691406 601.085938 330.929688 C 600.578125 330.167969 600.109375 329.382812 599.675781 328.574219 C 599.246094 327.765625 598.855469 326.9375 598.503906 326.09375 C 598.152344 325.246094 597.847656 324.382812 597.578125 323.507812 C 597.3125 322.628906 597.09375 321.742188 596.914062 320.84375 C 596.734375 319.945312 596.601562 319.039062 596.511719 318.125 C 596.421875 317.214844 596.375 316.300781 596.375 315.382812 C 596.378906 314.46875 596.421875 313.554688 596.511719 312.640625 C 596.605469 311.730469 596.738281 310.824219 596.917969 309.925781 C 597.097656 309.027344 597.320312 308.140625 597.585938 307.265625 C 597.851562 306.386719 598.160156 305.527344 598.511719 304.679688 C 598.859375 303.832031 599.25 303.007812 599.683594 302.199219 C 600.113281 301.390625 600.585938 300.605469 601.09375 299.84375 C 601.601562 299.082031 602.148438 298.347656 602.726562 297.640625 C 603.308594 296.933594 603.921875 296.253906 604.570312 295.605469 C 605.214844 294.957031 605.894531 294.34375 606.601562 293.761719 C 607.308594 293.179688 608.042969 292.636719 608.800781 292.125 C 609.5625 291.617188 610.347656 291.148438 611.152344 290.714844 C 611.960938 290.28125 612.785156 289.890625 613.632812 289.539062 C 614.476562 289.1875 615.335938 288.878906 616.210938 288.613281 C 617.089844 288.347656 617.972656 288.125 618.871094 287.945312 C 619.769531 287.765625 620.671875 287.632812 621.582031 287.539062 C 622.496094 287.449219 623.40625 287.40625 624.320312 287.402344 Z M 624.320312 287.402344 " fill-opacity="1" fill-rule="nonzero"/><path fill="#ffffff" d="M 611.949219 333.308594 L 636.714844 333.308594 C 637.183594 333.308594 637.648438 333.261719 638.105469 333.171875 C 638.5625 333.078125 639.007812 332.945312 639.441406 332.765625 C 639.871094 332.585938 640.28125 332.367188 640.671875 332.105469 C 641.058594 331.847656 641.421875 331.550781 641.75 331.21875 C 642.082031 330.890625 642.375 330.527344 642.636719 330.140625 C 642.894531 329.75 643.113281 329.339844 643.292969 328.90625 C 643.472656 328.476562 643.609375 328.027344 643.699219 327.570312 C 643.789062 327.109375 643.835938 326.648438 643.835938 326.179688 L 643.835938 304.566406 C 643.835938 304.097656 643.789062 303.636719 643.695312 303.175781 C 643.601562 302.71875 643.46875 302.273438 643.289062 301.839844 C 643.109375 301.410156 642.886719 301 642.628906 300.609375 C 642.367188 300.222656 642.074219 299.863281 641.742188 299.53125 C 641.414062 299.203125 641.054688 298.90625 640.667969 298.644531 C 640.277344 298.386719 639.867188 298.167969 639.4375 297.988281 C 639.007812 297.808594 638.5625 297.671875 638.105469 297.578125 C 637.644531 297.488281 637.183594 297.441406 636.714844 297.4375 L 611.949219 297.4375 C 611.484375 297.441406 611.019531 297.488281 610.5625 297.578125 C 610.105469 297.671875 609.660156 297.808594 609.230469 297.988281 C 608.796875 298.167969 608.390625 298.386719 608 298.644531 C 607.613281 298.90625 607.253906 299.203125 606.921875 299.53125 C 606.59375 299.863281 606.296875 300.222656 606.039062 300.609375 C 605.777344 301 605.558594 301.410156 605.378906 301.839844 C 605.199219 302.273438 605.066406 302.71875 604.972656 303.175781 C 604.878906 303.636719 604.832031 304.097656 604.832031 304.566406 L 604.832031 326.179688 C 604.832031 326.648438 604.878906 327.109375 604.96875 327.570312 C 605.058594 328.027344 605.195312 328.476562 605.375 328.90625 C 605.550781 329.339844 605.773438 329.75 606.03125 330.140625 C 606.292969 330.527344 606.585938 330.890625 606.917969 331.21875 C 607.246094 331.550781 607.605469 331.847656 607.996094 332.105469 C 608.382812 332.367188 608.792969 332.585938 609.226562 332.765625 C 609.65625 332.945312 610.101562 333.078125 610.5625 333.171875 C 611.019531 333.261719 611.484375 333.308594 611.949219 333.308594 Z M 609.4375 304.566406 C 609.4375 304.230469 609.503906 303.910156 609.628906 303.605469 C 609.757812 303.296875 609.941406 303.023438 610.175781 302.789062 C 610.410156 302.550781 610.683594 302.371094 610.988281 302.242188 C 611.296875 302.113281 611.617188 302.050781 611.949219 302.050781 L 636.714844 302.050781 C 637.050781 302.050781 637.371094 302.113281 637.675781 302.242188 C 637.984375 302.371094 638.257812 302.550781 638.492188 302.789062 C 638.726562 303.023438 638.910156 303.296875 639.035156 303.605469 C 639.164062 303.910156 639.226562 304.230469 639.226562 304.566406 L 639.226562 326.179688 C 639.226562 326.511719 639.164062 326.832031 639.035156 327.140625 C 638.910156 327.449219 638.726562 327.722656 638.492188 327.957031 C 638.257812 328.191406 637.984375 328.375 637.675781 328.503906 C 637.371094 328.628906 637.050781 328.695312 636.714844 328.695312 L 611.949219 328.695312 C 611.617188 328.695312 611.296875 328.628906 610.988281 328.503906 C 610.683594 328.375 610.410156 328.191406 610.175781 327.957031 C 609.941406 327.722656 609.757812 327.449219 609.628906 327.140625 C 609.503906 326.832031 609.4375 326.511719 609.4375 326.179688 Z M 609.4375 304.566406 " fill-opacity="1" fill-rule="nonzero"/><path fill="#ffffff" d="M 624.320312 326.203125 C 624.984375 326.203125 625.636719 326.136719 626.285156 326.007812 C 626.933594 325.878906 627.5625 325.6875 628.175781 325.433594 C 628.785156 325.183594 629.367188 324.871094 629.914062 324.503906 C 630.464844 324.136719 630.972656 323.71875 631.441406 323.25 C 631.910156 322.78125 632.324219 322.273438 632.691406 321.722656 C 633.058594 321.171875 633.371094 320.589844 633.625 319.980469 C 633.875 319.367188 634.066406 318.738281 634.195312 318.089844 C 634.324219 317.441406 634.390625 316.785156 634.390625 316.121094 C 634.390625 315.460938 634.324219 314.804688 634.195312 314.15625 C 634.066406 313.507812 633.875 312.875 633.625 312.265625 C 633.371094 311.652344 633.058594 311.074219 632.691406 310.523438 C 632.324219 309.972656 631.910156 309.460938 631.441406 308.996094 C 630.972656 308.527344 630.464844 308.109375 629.914062 307.742188 C 629.367188 307.375 628.785156 307.0625 628.175781 306.808594 C 627.5625 306.554688 626.933594 306.363281 626.285156 306.234375 C 625.636719 306.105469 624.984375 306.042969 624.320312 306.042969 C 623.660156 306.042969 623.007812 306.105469 622.359375 306.234375 C 621.710938 306.363281 621.082031 306.554688 620.46875 306.808594 C 619.859375 307.0625 619.277344 307.375 618.730469 307.742188 C 618.179688 308.109375 617.671875 308.527344 617.203125 308.996094 C 616.734375 309.460938 616.320312 309.972656 615.949219 310.523438 C 615.582031 311.074219 615.273438 311.652344 615.019531 312.265625 C 614.769531 312.875 614.578125 313.507812 614.449219 314.15625 C 614.320312 314.804688 614.253906 315.460938 614.253906 316.121094 C 614.253906 316.785156 614.320312 317.441406 614.449219 318.089844 C 614.578125 318.738281 614.769531 319.367188 615.019531 319.980469 C 615.273438 320.589844 615.582031 321.171875 615.949219 321.722656 C 616.320312 322.273438 616.734375 322.78125 617.203125 323.25 C 617.671875 323.71875 618.179688 324.136719 618.730469 324.503906 C 619.277344 324.871094 619.859375 325.183594 620.46875 325.433594 C 621.082031 325.6875 621.710938 325.878906 622.359375 326.007812 C 623.007812 326.136719 623.660156 326.203125 624.320312 326.203125 Z M 624.320312 310.65625 C 624.679688 310.65625 625.035156 310.691406 625.386719 310.761719 C 625.738281 310.832031 626.082031 310.933594 626.410156 311.070312 C 626.742188 311.207031 627.058594 311.378906 627.355469 311.578125 C 627.652344 311.777344 627.929688 312.003906 628.183594 312.257812 C 628.4375 312.511719 628.664062 312.785156 628.863281 313.085938 C 629.0625 313.382812 629.230469 313.699219 629.367188 314.03125 C 629.503906 314.363281 629.605469 314.703125 629.675781 315.054688 C 629.746094 315.40625 629.78125 315.761719 629.78125 316.121094 C 629.78125 316.480469 629.746094 316.835938 629.675781 317.1875 C 629.605469 317.539062 629.503906 317.882812 629.367188 318.214844 C 629.230469 318.546875 629.0625 318.859375 628.863281 319.160156 C 628.664062 319.457031 628.4375 319.734375 628.183594 319.988281 C 627.929688 320.242188 627.652344 320.46875 627.355469 320.667969 C 627.058594 320.867188 626.742188 321.035156 626.410156 321.171875 C 626.082031 321.308594 625.738281 321.414062 625.386719 321.484375 C 625.035156 321.554688 624.679688 321.589844 624.320312 321.589844 C 623.964844 321.589844 623.609375 321.554688 623.257812 321.484375 C 622.90625 321.414062 622.5625 321.308594 622.234375 321.171875 C 621.902344 321.035156 621.585938 320.867188 621.289062 320.667969 C 620.992188 320.46875 620.714844 320.242188 620.460938 319.988281 C 620.207031 319.734375 619.980469 319.457031 619.78125 319.160156 C 619.582031 318.859375 619.414062 318.546875 619.277344 318.214844 C 619.140625 317.882812 619.035156 317.539062 618.96875 317.1875 C 618.898438 316.835938 618.863281 316.480469 618.863281 316.121094 C 618.871094 315.769531 618.910156 315.417969 618.984375 315.074219 C 619.0625 314.726562 619.167969 314.390625 619.308594 314.066406 C 619.449219 313.742188 619.621094 313.433594 619.820312 313.140625 C 620.023438 312.847656 620.25 312.578125 620.5 312.332031 C 620.753906 312.082031 621.027344 311.863281 621.324219 311.667969 C 621.621094 311.472656 621.929688 311.308594 622.257812 311.175781 C 622.585938 311.042969 622.921875 310.941406 623.269531 310.875 C 623.617188 310.804688 623.96875 310.769531 624.320312 310.769531 Z M 624.320312 310.65625 " fill-opacity="1" fill-rule="nonzero"/><path fill="#ffffff" d="M 636.761719 306.089844 C 636.761719 306.292969 636.722656 306.492188 636.644531 306.679688 C 636.566406 306.867188 636.457031 307.035156 636.3125 307.179688 C 636.164062 307.324219 636 307.4375 635.808594 307.515625 C 635.621094 307.59375 635.425781 307.632812 635.21875 307.632812 C 635.015625 307.632812 634.816406 307.59375 634.628906 307.515625 C 634.4375 307.4375 634.273438 307.324219 634.128906 307.179688 C 633.984375 307.035156 633.871094 306.867188 633.792969 306.679688 C 633.714844 306.492188 633.675781 306.292969 633.675781 306.089844 C 633.675781 305.882812 633.714844 305.6875 633.792969 305.496094 C 633.871094 305.308594 633.984375 305.140625 634.128906 304.996094 C 634.273438 304.851562 634.4375 304.738281 634.628906 304.660156 C 634.816406 304.582031 635.015625 304.542969 635.21875 304.542969 C 635.425781 304.542969 635.621094 304.582031 635.808594 304.660156 C 636 304.738281 636.164062 304.851562 636.3125 304.996094 C 636.457031 305.140625 636.566406 305.308594 636.644531 305.496094 C 636.722656 305.6875 636.761719 305.882812 636.761719 306.089844 Z M 636.761719 306.089844 " fill-opacity="1" fill-rule="nonzero"/><path fill="#ffffff" d="M 857.769531 398.195312 C 857.769531 397.144531 857.71875 396.09375 857.617188 395.050781 C 857.511719 394.003906 857.363281 392.964844 857.160156 391.933594 C 856.957031 390.902344 856.707031 389.882812 856.40625 388.875 C 856.105469 387.867188 855.757812 386.878906 855.359375 385.902344 C 854.964844 384.929688 854.519531 383.980469 854.03125 383.046875 C 853.542969 382.117188 853.011719 381.210938 852.4375 380.332031 C 851.859375 379.453125 851.242188 378.605469 850.585938 377.785156 C 849.929688 376.96875 849.230469 376.183594 848.5 375.429688 C 847.765625 374.679688 846.996094 373.964844 846.195312 373.285156 C 845.390625 372.609375 844.558594 371.972656 843.691406 371.375 C 842.828125 370.777344 841.9375 370.226562 841.019531 369.714844 C 840.101562 369.203125 839.160156 368.738281 838.199219 368.320312 C 837.238281 367.902344 836.257812 367.527344 835.257812 367.203125 C 834.257812 366.878906 833.246094 366.605469 832.222656 366.378906 C 831.195312 366.152344 830.164062 365.976562 829.121094 365.851562 C 828.078125 365.726562 827.03125 365.648438 825.984375 365.625 C 824.933594 365.601562 823.882812 365.625 822.835938 365.703125 C 821.789062 365.78125 820.75 365.90625 819.714844 366.085938 C 818.679688 366.261719 817.65625 366.488281 816.644531 366.765625 C 815.628906 367.042969 814.632812 367.367188 813.652344 367.742188 C 812.671875 368.113281 811.710938 368.535156 810.769531 369 C 809.828125 369.46875 808.914062 369.976562 808.019531 370.535156 C 807.128906 371.089844 806.265625 371.6875 805.433594 372.324219 C 804.597656 372.964844 803.796875 373.640625 803.03125 374.355469 C 802.261719 375.074219 801.53125 375.824219 800.835938 376.613281 C 800.136719 377.398438 799.480469 378.21875 798.867188 379.070312 C 798.25 379.921875 797.675781 380.800781 797.144531 381.707031 C 796.613281 382.613281 796.125 383.542969 795.683594 384.496094 C 795.242188 385.449219 794.847656 386.421875 794.5 387.414062 C 794.152344 388.40625 793.851562 389.414062 793.601562 390.433594 C 793.351562 391.453125 793.152344 392.484375 793 393.523438 C 792.851562 394.566406 792.75 395.609375 792.699219 396.660156 C 792.648438 397.710938 792.648438 398.761719 792.703125 399.808594 C 792.753906 400.859375 792.855469 401.90625 793.007812 402.945312 C 793.160156 403.984375 793.363281 405.015625 793.613281 406.035156 C 793.867188 407.054688 794.167969 408.0625 794.515625 409.054688 C 794.867188 410.042969 795.261719 411.015625 795.707031 411.96875 C 796.148438 412.921875 796.636719 413.851562 797.167969 414.757812 C 797.703125 415.664062 798.277344 416.539062 798.894531 417.390625 C 799.515625 418.238281 800.171875 419.058594 800.867188 419.84375 C 801.566406 420.628906 802.296875 421.382812 803.066406 422.097656 C 803.835938 422.8125 804.640625 423.488281 805.472656 424.125 C 806.308594 424.761719 807.171875 425.359375 808.0625 425.914062 C 808.957031 426.464844 809.875 426.976562 810.816406 427.441406 C 811.757812 427.90625 812.71875 428.324219 813.699219 428.695312 C 814.683594 429.066406 815.679688 429.390625 816.691406 429.667969 C 817.707031 429.941406 818.730469 430.167969 819.765625 430.34375 C 820.800781 430.519531 821.839844 430.644531 822.890625 430.71875 C 822.828125 432.128906 822.558594 433.496094 822.082031 434.824219 L 826.390625 436.464844 C 827.09375 434.613281 827.46875 432.699219 827.519531 430.71875 C 828.535156 430.648438 829.546875 430.527344 830.550781 430.359375 C 831.554688 430.195312 832.546875 429.980469 833.535156 429.71875 C 834.519531 429.460938 835.488281 429.152344 836.445312 428.800781 C 837.398438 428.449219 838.335938 428.054688 839.253906 427.613281 C 840.175781 427.175781 841.070312 426.691406 841.945312 426.167969 C 842.816406 425.644531 843.664062 425.082031 844.484375 424.476562 C 845.304688 423.875 846.097656 423.234375 846.855469 422.554688 C 847.617188 421.878906 848.34375 421.167969 849.039062 420.421875 C 849.734375 419.671875 850.390625 418.898438 851.011719 418.089844 C 851.632812 417.28125 852.214844 416.445312 852.757812 415.582031 C 853.300781 414.71875 853.800781 413.835938 854.261719 412.925781 C 854.722656 412.015625 855.136719 411.085938 855.511719 410.136719 C 855.882812 409.1875 856.210938 408.222656 856.492188 407.246094 C 856.773438 406.265625 857.011719 405.273438 857.199219 404.273438 C 857.390625 403.269531 857.53125 402.261719 857.625 401.246094 C 857.722656 400.230469 857.769531 399.214844 857.769531 398.195312 Z M 825.214844 426.105469 C 824.300781 426.105469 823.386719 426.0625 822.476562 425.972656 C 821.5625 425.882812 820.660156 425.746094 819.761719 425.566406 C 818.863281 425.390625 817.976562 425.167969 817.097656 424.898438 C 816.222656 424.632812 815.363281 424.324219 814.515625 423.972656 C 813.671875 423.625 812.84375 423.230469 812.035156 422.800781 C 811.226562 422.367188 810.445312 421.894531 809.683594 421.386719 C 808.921875 420.875 808.1875 420.332031 807.480469 419.75 C 806.773438 419.167969 806.09375 418.550781 805.445312 417.902344 C 804.800781 417.253906 804.1875 416.574219 803.605469 415.867188 C 803.023438 415.15625 802.480469 414.421875 801.972656 413.660156 C 801.464844 412.894531 800.992188 412.109375 800.5625 411.300781 C 800.132812 410.492188 799.742188 409.664062 799.390625 408.816406 C 799.039062 407.96875 798.734375 407.109375 798.46875 406.230469 C 798.203125 405.351562 797.980469 404.464844 797.804688 403.566406 C 797.625 402.664062 797.492188 401.757812 797.402344 400.847656 C 797.3125 399.933594 797.269531 399.019531 797.269531 398.101562 C 797.269531 397.1875 797.316406 396.269531 797.40625 395.359375 C 797.496094 394.445312 797.632812 393.539062 797.8125 392.640625 C 797.992188 391.742188 798.214844 390.855469 798.480469 389.976562 C 798.75 389.101562 799.058594 388.238281 799.410156 387.390625 C 799.761719 386.546875 800.152344 385.71875 800.585938 384.910156 C 801.015625 384.101562 801.488281 383.316406 801.996094 382.554688 C 802.507812 381.792969 803.054688 381.058594 803.632812 380.351562 C 804.214844 379.640625 804.832031 378.964844 805.480469 378.316406 C 806.128906 377.667969 806.804688 377.054688 807.515625 376.472656 C 808.222656 375.894531 808.960938 375.347656 809.722656 374.839844 C 810.484375 374.332031 811.269531 373.863281 812.078125 373.429688 C 812.886719 373 813.710938 372.609375 814.558594 372.261719 C 815.40625 371.910156 816.265625 371.601562 817.144531 371.339844 C 818.019531 371.074219 818.90625 370.851562 819.804688 370.675781 C 820.703125 370.496094 821.609375 370.363281 822.519531 370.277344 C 823.433594 370.1875 824.347656 370.144531 825.261719 370.144531 C 826.175781 370.148438 827.089844 370.195312 828.003906 370.285156 C 828.914062 370.375 829.816406 370.511719 830.714844 370.691406 C 831.613281 370.875 832.5 371.097656 833.375 371.363281 C 834.25 371.632812 835.113281 371.941406 835.957031 372.296875 C 836.804688 372.648438 837.628906 373.039062 838.4375 373.476562 C 839.242188 373.910156 840.027344 374.378906 840.785156 374.890625 C 841.546875 375.402344 842.28125 375.949219 842.988281 376.53125 C 843.695312 377.117188 844.371094 377.730469 845.015625 378.382812 C 845.664062 379.03125 846.277344 379.710938 846.855469 380.421875 C 847.433594 381.132812 847.976562 381.867188 848.484375 382.632812 C 848.992188 383.394531 849.460938 384.179688 849.890625 384.992188 C 850.320312 385.800781 850.710938 386.628906 851.058594 387.476562 C 851.40625 388.324219 851.710938 389.1875 851.976562 390.066406 C 852.242188 390.945312 852.460938 391.832031 852.636719 392.730469 C 852.8125 393.632812 852.945312 394.539062 853.03125 395.449219 C 853.121094 396.363281 853.164062 397.277344 853.160156 398.195312 C 853.15625 399.109375 853.109375 400.023438 853.015625 400.933594 C 852.921875 401.839844 852.785156 402.746094 852.605469 403.640625 C 852.421875 404.539062 852.199219 405.421875 851.929688 406.296875 C 851.664062 407.171875 851.355469 408.03125 851 408.875 C 850.648438 409.71875 850.257812 410.542969 849.824219 411.347656 C 849.394531 412.152344 848.921875 412.9375 848.414062 413.695312 C 847.90625 414.457031 847.359375 415.1875 846.777344 415.894531 C 846.199219 416.601562 845.585938 417.277344 844.9375 417.921875 C 844.292969 418.566406 843.613281 419.179688 842.910156 419.761719 C 842.203125 420.339844 841.46875 420.882812 840.707031 421.390625 C 839.949219 421.898438 839.167969 422.367188 838.359375 422.800781 C 837.554688 423.230469 836.730469 423.621094 835.886719 423.972656 C 835.042969 424.320312 834.183594 424.628906 833.308594 424.894531 C 832.4375 425.160156 831.550781 425.382812 830.65625 425.5625 C 829.761719 425.742188 828.859375 425.878906 827.949219 425.96875 C 827.039062 426.058594 826.128906 426.105469 825.214844 426.105469 Z M 825.214844 426.105469 " fill-opacity="1" fill-rule="nonzero"/><path fill="#ffffff" d="M 846.089844 386.152344 C 845.898438 385.960938 845.683594 385.808594 845.441406 385.691406 C 845.640625 385.222656 845.675781 384.738281 845.550781 384.242188 C 845.429688 383.75 845.167969 383.339844 844.773438 383.015625 C 844.566406 382.84375 844.339844 382.710938 844.085938 382.621094 C 843.832031 382.527344 843.570312 382.484375 843.300781 382.484375 C 843.03125 382.484375 842.769531 382.527344 842.515625 382.621094 C 842.261719 382.710938 842.03125 382.84375 841.828125 383.015625 C 840.945312 383.46875 840.03125 383.835938 839.085938 384.125 C 838.375 383.558594 837.601562 383.097656 836.765625 382.746094 C 835.933594 382.390625 835.066406 382.15625 834.164062 382.039062 C 833.265625 381.921875 832.367188 381.929688 831.46875 382.058594 C 830.570312 382.1875 829.707031 382.433594 828.878906 382.800781 C 828.046875 383.164062 827.28125 383.636719 826.582031 384.210938 C 825.878906 384.785156 825.265625 385.445312 824.746094 386.1875 C 824.222656 386.929688 823.8125 387.730469 823.507812 388.585938 C 823.203125 389.441406 823.019531 390.324219 822.957031 391.230469 C 820.578125 390.902344 818.351562 390.140625 816.269531 388.945312 C 814.1875 387.746094 812.410156 386.203125 810.933594 384.308594 C 810.472656 383.710938 809.867188 383.410156 809.113281 383.410156 C 808.34375 383.410156 807.730469 383.714844 807.269531 384.332031 C 806.449219 385.679688 805.949219 387.140625 805.777344 388.707031 C 805.605469 390.277344 805.769531 391.808594 806.277344 393.304688 C 805.761719 393.746094 805.492188 394.308594 805.472656 394.988281 C 805.449219 396.386719 805.695312 397.734375 806.210938 399.035156 C 806.726562 400.332031 807.46875 401.484375 808.445312 402.484375 C 808.273438 402.984375 808.273438 403.484375 808.445312 403.984375 C 809.097656 405.984375 810.265625 407.613281 811.945312 408.875 C 810.195312 409.433594 808.40625 409.625 806.578125 409.453125 C 806.066406 409.421875 805.59375 409.550781 805.167969 409.839844 C 804.742188 410.125 804.441406 410.511719 804.273438 410.996094 C 804.191406 411.238281 804.148438 411.488281 804.152344 411.746094 C 804.152344 412 804.191406 412.25 804.277344 412.492188 C 804.359375 412.734375 804.480469 412.957031 804.636719 413.160156 C 804.796875 413.363281 804.980469 413.53125 805.195312 413.671875 C 809.078125 416.113281 813.308594 417.445312 817.890625 417.664062 C 818.660156 417.667969 819.429688 417.613281 820.191406 417.503906 C 822.585938 417.296875 824.90625 416.765625 827.148438 415.90625 C 829.390625 415.046875 831.472656 413.894531 833.394531 412.449219 C 835.539062 410.742188 837.34375 408.730469 838.808594 406.414062 C 840.273438 404.097656 841.316406 401.605469 841.941406 398.933594 C 842.230469 397.742188 842.429688 396.535156 842.539062 395.3125 C 842.539062 394.710938 842.539062 394.113281 842.679688 393.488281 L 842.679688 393.121094 C 844.007812 391.941406 845.199219 390.632812 846.25 389.199219 C 846.421875 388.980469 846.554688 388.734375 846.636719 388.46875 C 846.722656 388.199219 846.757812 387.925781 846.742188 387.644531 C 846.726562 387.367188 846.664062 387.097656 846.550781 386.839844 C 846.4375 386.582031 846.285156 386.355469 846.089844 386.152344 Z M 838.070312 393.328125 C 838.070312 393.859375 838.070312 394.390625 838.070312 394.898438 C 837.96875 395.914062 837.796875 396.921875 837.5625 397.917969 C 837.074219 400.09375 836.234375 402.125 835.050781 404.011719 C 833.863281 405.898438 832.398438 407.535156 830.652344 408.921875 C 829.046875 410.097656 827.308594 411.027344 825.441406 411.71875 C 823.574219 412.40625 821.648438 412.828125 819.664062 412.980469 C 818.113281 413.195312 816.578125 413.125 815.054688 412.773438 C 816.550781 412.195312 817.941406 411.425781 819.226562 410.46875 C 819.566406 410.1875 819.804688 409.839844 819.945312 409.425781 C 820.085938 409.007812 820.109375 408.589844 820.007812 408.160156 C 819.894531 407.726562 819.671875 407.355469 819.34375 407.050781 C 819.015625 406.746094 818.628906 406.554688 818.1875 406.476562 C 816.886719 406.335938 815.703125 405.882812 814.640625 405.117188 C 815.164062 404.882812 815.550781 404.503906 815.792969 403.984375 C 815.972656 403.644531 816.0625 403.285156 816.0625 402.902344 C 816.0625 402.515625 815.972656 402.15625 815.792969 401.816406 L 815.65625 401.609375 C 815.320312 401.050781 814.835938 400.695312 814.203125 400.546875 C 813.59375 400.421875 813.035156 400.183594 812.523438 399.832031 C 812.011719 399.480469 811.589844 399.042969 811.253906 398.519531 C 811.722656 398.496094 812.144531 398.34375 812.519531 398.0625 C 812.894531 397.78125 813.160156 397.417969 813.316406 396.972656 C 813.46875 396.53125 813.488281 396.082031 813.367188 395.628906 C 813.246094 395.171875 813.011719 394.792969 812.660156 394.480469 C 812.0625 393.984375 811.585938 393.394531 811.222656 392.707031 C 810.863281 392.019531 810.652344 391.289062 810.585938 390.515625 C 812.695312 392.253906 815.027344 393.601562 817.582031 394.5625 C 820.140625 395.523438 822.785156 396.042969 825.515625 396.121094 C 825.875 396.140625 826.21875 396.078125 826.542969 395.925781 C 826.871094 395.773438 827.140625 395.554688 827.359375 395.265625 C 827.828125 394.675781 827.972656 394.015625 827.796875 393.28125 C 827.703125 392.863281 827.65625 392.441406 827.65625 392.011719 C 827.65625 391.660156 827.691406 391.3125 827.761719 390.964844 C 827.828125 390.617188 827.929688 390.28125 828.066406 389.957031 C 828.203125 389.628906 828.367188 389.320312 828.5625 389.027344 C 828.757812 388.734375 828.980469 388.460938 829.230469 388.210938 C 829.480469 387.964844 829.75 387.742188 830.042969 387.542969 C 830.335938 387.347656 830.644531 387.183594 830.972656 387.046875 C 831.296875 386.914062 831.632812 386.8125 831.976562 386.742188 C 832.324219 386.671875 832.671875 386.636719 833.027344 386.636719 C 833.765625 386.632812 834.476562 386.777344 835.152344 387.074219 C 835.832031 387.375 836.421875 387.796875 836.917969 388.34375 C 837.101562 388.539062 837.308594 388.703125 837.542969 388.828125 C 837.425781 389.382812 837.503906 389.902344 837.773438 390.398438 C 837.914062 390.683594 838.113281 390.921875 838.371094 391.113281 C 838.101562 391.828125 838 392.566406 838.070312 393.328125 Z M 838.070312 393.328125 " fill-opacity="1" fill-rule="nonzero"/><path fill="#ffffff" d="M 793.492188 323.828125 C 794.347656 323.828125 795.203125 323.785156 796.058594 323.703125 C 796.910156 323.621094 797.757812 323.496094 798.597656 323.328125 C 799.441406 323.160156 800.269531 322.953125 801.089844 322.703125 C 801.910156 322.457031 802.71875 322.167969 803.511719 321.839844 C 804.304688 321.511719 805.078125 321.144531 805.832031 320.742188 C 806.589844 320.339844 807.324219 319.898438 808.039062 319.421875 C 808.75 318.945312 809.441406 318.433594 810.101562 317.890625 C 810.765625 317.347656 811.402344 316.773438 812.007812 316.164062 C 812.613281 315.558594 813.191406 314.925781 813.734375 314.261719 C 814.277344 313.597656 814.789062 312.910156 815.265625 312.195312 C 815.742188 311.484375 816.183594 310.746094 816.585938 309.992188 C 816.992188 309.234375 817.359375 308.460938 817.6875 307.667969 C 818.015625 306.875 818.304688 306.066406 818.554688 305.246094 C 818.804688 304.425781 819.011719 303.59375 819.179688 302.75 C 819.347656 301.910156 819.472656 301.0625 819.558594 300.207031 C 819.644531 299.351562 819.6875 298.496094 819.6875 297.636719 C 819.6875 296.78125 819.644531 295.921875 819.5625 295.070312 C 819.476562 294.214844 819.351562 293.367188 819.1875 292.523438 C 819.019531 291.683594 818.8125 290.851562 818.5625 290.027344 C 818.316406 289.207031 818.027344 288.398438 817.699219 287.605469 C 817.371094 286.8125 817.007812 286.039062 816.601562 285.28125 C 816.199219 284.523438 815.757812 283.789062 815.28125 283.074219 C 814.808594 282.359375 814.296875 281.671875 813.753906 281.007812 C 813.210938 280.34375 812.636719 279.707031 812.027344 279.101562 C 811.421875 278.496094 810.789062 277.917969 810.125 277.375 C 809.464844 276.828125 808.777344 276.316406 808.0625 275.839844 C 807.351562 275.363281 806.617188 274.921875 805.859375 274.515625 C 805.105469 274.113281 804.332031 273.746094 803.539062 273.417969 C 802.746094 273.089844 801.941406 272.796875 801.121094 272.550781 C 800.300781 272.300781 799.46875 272.089844 798.628906 271.921875 C 797.789062 271.753906 796.941406 271.628906 796.089844 271.546875 C 795.234375 271.460938 794.378906 271.417969 793.523438 271.417969 C 792.664062 271.417969 791.808594 271.460938 790.957031 271.542969 C 790.105469 271.628906 789.257812 271.753906 788.414062 271.921875 C 787.574219 272.085938 786.746094 272.296875 785.921875 272.542969 C 785.101562 272.792969 784.296875 273.082031 783.503906 273.410156 C 782.710938 273.738281 781.9375 274.105469 781.183594 274.511719 C 780.425781 274.914062 779.691406 275.355469 778.980469 275.832031 C 778.265625 276.308594 777.578125 276.820312 776.914062 277.363281 C 776.253906 277.90625 775.617188 278.484375 775.011719 279.089844 C 774.40625 279.699219 773.832031 280.332031 773.285156 280.996094 C 772.742188 281.660156 772.230469 282.347656 771.753906 283.0625 C 771.28125 283.777344 770.839844 284.511719 770.433594 285.269531 C 770.03125 286.023438 769.664062 286.800781 769.335938 287.59375 C 769.007812 288.386719 768.71875 289.191406 768.472656 290.015625 C 768.222656 290.835938 768.015625 291.667969 767.847656 292.507812 C 767.679688 293.351562 767.554688 294.199219 767.46875 295.054688 C 767.386719 295.90625 767.34375 296.765625 767.34375 297.621094 C 767.34375 298.480469 767.386719 299.335938 767.472656 300.1875 C 767.554688 301.042969 767.683594 301.890625 767.851562 302.730469 C 768.015625 303.570312 768.226562 304.402344 768.472656 305.222656 C 768.722656 306.042969 769.011719 306.847656 769.339844 307.640625 C 769.667969 308.433594 770.035156 309.207031 770.4375 309.964844 C 770.839844 310.71875 771.28125 311.457031 771.757812 312.167969 C 772.230469 312.882812 772.742188 313.570312 773.285156 314.230469 C 773.828125 314.894531 774.402344 315.53125 775.007812 316.136719 C 775.613281 316.742188 776.246094 317.320312 776.910156 317.863281 C 777.570312 318.40625 778.257812 318.917969 778.96875 319.394531 C 779.679688 319.871094 780.414062 320.3125 781.167969 320.71875 C 781.921875 321.125 782.695312 321.492188 783.488281 321.820312 C 784.277344 322.148438 785.082031 322.4375 785.902344 322.6875 C 786.722656 322.9375 787.550781 323.148438 788.390625 323.316406 C 789.230469 323.484375 790.078125 323.609375 790.929688 323.695312 C 791.78125 323.78125 792.636719 323.824219 793.492188 323.828125 Z M 793.492188 276.171875 C 794.199219 276.167969 794.902344 276.203125 795.605469 276.273438 C 796.308594 276.339844 797.007812 276.445312 797.699219 276.582031 C 798.394531 276.71875 799.078125 276.890625 799.753906 277.09375 C 800.433594 277.296875 801.097656 277.535156 801.75 277.804688 C 802.402344 278.078125 803.039062 278.378906 803.664062 278.710938 C 804.289062 279.042969 804.894531 279.40625 805.480469 279.800781 C 806.070312 280.191406 806.636719 280.613281 807.183594 281.0625 C 807.730469 281.507812 808.253906 281.984375 808.753906 282.484375 C 809.253906 282.984375 809.726562 283.507812 810.175781 284.054688 C 810.625 284.597656 811.042969 285.167969 811.4375 285.753906 C 811.828125 286.34375 812.191406 286.949219 812.527344 287.570312 C 812.859375 288.195312 813.164062 288.835938 813.433594 289.488281 C 813.703125 290.140625 813.941406 290.804688 814.148438 291.484375 C 814.351562 292.160156 814.523438 292.84375 814.664062 293.539062 C 814.800781 294.234375 814.90625 294.933594 814.972656 295.636719 C 815.042969 296.339844 815.078125 297.046875 815.078125 297.753906 C 815.078125 298.460938 815.042969 299.167969 814.976562 299.871094 C 814.90625 300.574219 814.804688 301.273438 814.664062 301.96875 C 814.527344 302.660156 814.355469 303.347656 814.152344 304.023438 C 813.945312 304.699219 813.710938 305.367188 813.4375 306.019531 C 813.167969 306.671875 812.867188 307.3125 812.535156 307.9375 C 812.199219 308.558594 811.839844 309.167969 811.445312 309.753906 C 811.054688 310.34375 810.632812 310.910156 810.183594 311.457031 C 809.738281 312.003906 809.261719 312.527344 808.761719 313.027344 C 808.261719 313.527344 807.742188 314.003906 807.195312 314.453125 C 806.648438 314.898438 806.082031 315.320312 805.492188 315.714844 C 804.90625 316.105469 804.300781 316.46875 803.675781 316.804688 C 803.054688 317.136719 802.417969 317.4375 801.761719 317.710938 C 801.109375 317.980469 800.445312 318.21875 799.769531 318.421875 C 799.09375 318.628906 798.410156 318.800781 797.714844 318.9375 C 797.023438 319.074219 796.324219 319.179688 795.621094 319.25 C 794.917969 319.316406 794.214844 319.351562 793.507812 319.351562 C 792.800781 319.351562 792.097656 319.316406 791.394531 319.246094 C 790.691406 319.175781 789.992188 319.074219 789.296875 318.933594 C 788.605469 318.796875 787.921875 318.625 787.246094 318.417969 C 786.570312 318.214844 785.90625 317.976562 785.253906 317.703125 C 784.597656 317.433594 783.960938 317.128906 783.339844 316.796875 C 782.714844 316.460938 782.109375 316.097656 781.523438 315.707031 C 780.9375 315.3125 780.371094 314.890625 779.824219 314.441406 C 779.277344 313.992188 778.753906 313.519531 778.257812 313.015625 C 777.757812 312.515625 777.285156 311.992188 776.835938 311.445312 C 776.386719 310.898438 775.96875 310.332031 775.574219 309.742188 C 775.183594 309.152344 774.820312 308.546875 774.488281 307.921875 C 774.15625 307.296875 773.855469 306.660156 773.585938 306.003906 C 773.316406 305.351562 773.078125 304.6875 772.875 304.007812 C 772.667969 303.332031 772.5 302.644531 772.363281 301.953125 C 772.222656 301.257812 772.121094 300.558594 772.054688 299.855469 C 771.984375 299.152344 771.949219 298.445312 771.953125 297.738281 C 771.953125 297.03125 771.988281 296.328125 772.058594 295.625 C 772.125 294.921875 772.230469 294.222656 772.367188 293.53125 C 772.507812 292.839844 772.679688 292.15625 772.882812 291.480469 C 773.089844 290.804688 773.328125 290.140625 773.597656 289.488281 C 773.867188 288.835938 774.167969 288.199219 774.5 287.574219 C 774.835938 286.953125 775.195312 286.347656 775.589844 285.761719 C 775.980469 285.175781 776.398438 284.609375 776.847656 284.0625 C 777.296875 283.515625 777.769531 282.992188 778.265625 282.492188 C 778.765625 281.996094 779.289062 281.519531 779.832031 281.074219 C 780.378906 280.625 780.945312 280.203125 781.53125 279.8125 C 782.117188 279.417969 782.71875 279.058594 783.34375 278.722656 C 783.964844 278.390625 784.601562 278.089844 785.253906 277.816406 C 785.902344 277.546875 786.566406 277.308594 787.242188 277.105469 C 787.917969 276.898438 788.597656 276.726562 789.292969 276.589844 C 789.984375 276.449219 790.679688 276.347656 791.382812 276.277344 C 792.082031 276.207031 792.785156 276.171875 793.492188 276.171875 Z M 793.492188 276.171875 " fill-opacity="1" fill-rule="nonzero"/><path fill="#ffffff" d="M 789.484375 312.640625 L 790.289062 312.640625 L 790.289062 313.238281 L 790.152344 314.460938 C 790.117188 314.972656 790.207031 315.464844 790.414062 315.933594 C 790.621094 316.402344 790.925781 316.792969 791.328125 317.113281 C 791.855469 317.5 792.445312 317.683594 793.101562 317.667969 C 793.640625 317.664062 794.164062 317.566406 794.667969 317.367188 C 799.660156 314.757812 804.210938 311.527344 808.328125 307.679688 C 814.339844 301.128906 814.964844 293.839844 810.125 287.496094 C 809.917969 287.148438 804.871094 279.421875 791.441406 280.4375 L 791.117188 280.4375 C 787.824219 280.945312 776.90625 283.390625 774.667969 294.277344 C 774.507812 294.625 772.390625 308.464844 789.484375 312.640625 Z M 779.046875 295.40625 C 780.636719 287.632812 788.402344 285.652344 791.648438 285.167969 C 802.109375 284.429688 805.863281 289.78125 806.117188 290.242188 C 809.710938 295.039062 809.25 299.746094 804.710938 304.679688 C 801.730469 307.507812 798.457031 309.945312 794.898438 311.992188 C 794.90625 311.53125 794.847656 311.078125 794.714844 310.632812 C 794.113281 308.855469 792.039062 308.324219 790.335938 308.140625 C 777.757812 304.867188 779 295.707031 779.046875 295.40625 Z M 779.046875 295.40625 " fill-opacity="1" fill-rule="nonzero"/><path fill="#ffffff" d="M 786.765625 298.890625 C 787.042969 298.894531 787.308594 298.84375 787.5625 298.742188 C 787.820312 298.636719 788.046875 298.488281 788.242188 298.292969 C 788.441406 298.101562 788.589844 297.875 788.699219 297.621094 C 788.804688 297.367188 788.859375 297.097656 788.859375 296.824219 C 788.863281 296.546875 788.808594 296.28125 788.703125 296.023438 C 788.597656 295.769531 788.449219 295.542969 788.253906 295.347656 C 788.058594 295.152344 787.832031 295 787.578125 294.894531 C 787.320312 294.789062 787.054688 294.738281 786.78125 294.738281 C 786.503906 294.742188 786.238281 294.792969 785.984375 294.902344 C 785.730469 295.007812 785.503906 295.160156 785.3125 295.359375 C 785.117188 295.554688 784.96875 295.78125 784.863281 296.039062 C 784.761719 296.296875 784.710938 296.5625 784.714844 296.839844 C 784.714844 297.109375 784.765625 297.371094 784.871094 297.625 C 784.972656 297.875 785.121094 298.097656 785.316406 298.289062 C 785.507812 298.484375 785.730469 298.628906 785.980469 298.734375 C 786.230469 298.839844 786.492188 298.890625 786.765625 298.890625 Z M 786.765625 298.890625 " fill-opacity="1" fill-rule="nonzero"/><path fill="#ffffff" d="M 794.757812 298.890625 C 795.035156 298.894531 795.300781 298.84375 795.558594 298.742188 C 795.8125 298.636719 796.039062 298.488281 796.238281 298.292969 C 796.433594 298.101562 796.585938 297.875 796.691406 297.621094 C 796.800781 297.367188 796.855469 297.097656 796.855469 296.824219 C 796.855469 296.546875 796.804688 296.28125 796.699219 296.023438 C 796.59375 295.769531 796.445312 295.542969 796.25 295.347656 C 796.054688 295.152344 795.828125 295 795.570312 294.894531 C 795.316406 294.789062 795.050781 294.738281 794.773438 294.738281 C 794.5 294.742188 794.234375 294.792969 793.976562 294.902344 C 793.722656 295.007812 793.5 295.160156 793.304688 295.359375 C 793.109375 295.554688 792.960938 295.78125 792.859375 296.039062 C 792.753906 296.296875 792.707031 296.5625 792.707031 296.839844 C 792.707031 297.109375 792.761719 297.371094 792.863281 297.625 C 792.96875 297.875 793.117188 298.097656 793.308594 298.289062 C 793.5 298.484375 793.722656 298.628906 793.972656 298.734375 C 794.226562 298.839844 794.488281 298.890625 794.757812 298.890625 Z M 794.757812 298.890625 " fill-opacity="1" fill-rule="nonzero"/><path fill="#ffffff" d="M 804.828125 296.839844 C 804.828125 297.113281 804.773438 297.378906 804.667969 297.632812 C 804.5625 297.886719 804.414062 298.113281 804.21875 298.304688 C 804.023438 298.5 803.800781 298.652344 803.546875 298.757812 C 803.292969 298.863281 803.027344 298.914062 802.753906 298.914062 C 802.476562 298.914062 802.214844 298.863281 801.960938 298.757812 C 801.707031 298.652344 801.480469 298.5 801.289062 298.304688 C 801.09375 298.113281 800.941406 297.886719 800.835938 297.632812 C 800.734375 297.378906 800.679688 297.113281 800.679688 296.839844 C 800.679688 296.5625 800.734375 296.296875 800.835938 296.042969 C 800.941406 295.789062 801.09375 295.566406 801.289062 295.371094 C 801.480469 295.175781 801.707031 295.027344 801.960938 294.921875 C 802.214844 294.816406 802.476562 294.761719 802.753906 294.761719 C 803.027344 294.761719 803.292969 294.816406 803.546875 294.921875 C 803.800781 295.027344 804.023438 295.175781 804.21875 295.371094 C 804.414062 295.566406 804.5625 295.789062 804.667969 296.042969 C 804.773438 296.296875 804.828125 296.5625 804.828125 296.839844 Z M 804.828125 296.839844 " fill-opacity="1" fill-rule="nonzero"/><path fill="#ffffff" d="M 663.414062 508.574219 L 669.476562 506.109375 L 671.210938 510.382812 L 665.148438 512.847656 Z M 663.414062 508.574219 " fill-opacity="1" fill-rule="nonzero"/><path fill="#ffffff" d="M 623.101562 512.746094 C 625.242188 514.175781 627.546875 515.257812 630.011719 516 L 631.394531 511.59375 C 629.398438 510.984375 627.53125 510.097656 625.796875 508.941406 Z M 623.101562 512.746094 " fill-opacity="1" fill-rule="nonzero"/><path fill="#ffffff" d="M 637.613281 512.863281 L 637.132812 517.476562 C 638.765625 517.636719 640.519531 517.730469 642.316406 517.730469 L 644.34375 517.730469 L 644.179688 513.117188 C 641.988281 513.1875 639.796875 513.101562 637.613281 512.863281 Z M 637.613281 512.863281 " fill-opacity="1" fill-rule="nonzero"/><path fill="#ffffff" d="M 655.769531 511.664062 C 654.085938 511.984375 652.429688 512.261719 650.863281 512.46875 L 651.460938 517.082031 C 653.1875 516.828125 655.007812 516.550781 656.875 516.183594 C 657.035156 516.171875 657.1875 516.132812 657.335938 516.066406 L 658.789062 515.492188 L 657.058594 511.222656 Z M 655.769531 511.664062 " fill-opacity="1" fill-rule="nonzero"/><path fill="#ffffff" d="M 614.644531 499.921875 C 615.03125 502.652344 616.019531 505.144531 617.617188 507.394531 L 621.417969 504.789062 C 620.292969 503.183594 619.566406 501.414062 619.230469 499.484375 Z M 614.644531 499.921875 " fill-opacity="1" fill-rule="nonzero"/><path fill="#ffffff" d="M 662.933594 306.664062 C 664.402344 306.667969 665.859375 306.78125 667.3125 307.011719 L 668.003906 302.398438 C 666.324219 302.140625 664.632812 302.011719 662.933594 302.003906 C 662.109375 301.996094 661.289062 302.035156 660.46875 302.121094 L 661.023438 306.734375 C 661.65625 306.667969 662.296875 306.644531 662.933594 306.664062 Z M 662.933594 306.664062 " fill-opacity="1" fill-rule="nonzero"/><path fill="#ffffff" d="M 690.488281 334 L 695.09375 333.375 C 694.789062 330.980469 694.3125 328.621094 693.667969 326.296875 L 689.242188 327.515625 C 689.804688 329.648438 690.21875 331.8125 690.488281 334 Z M 690.488281 334 " fill-opacity="1" fill-rule="nonzero"/><path fill="#ffffff" d="M 681.734375 307.980469 C 679.699219 306.496094 677.511719 305.296875 675.167969 304.382812 L 673.460938 308.648438 C 675.433594 309.433594 677.273438 310.449219 678.992188 311.695312 Z M 681.734375 307.980469 " fill-opacity="1" fill-rule="nonzero"/><path fill="#ffffff" d="M 691.085938 319.445312 C 690.011719 317.167969 688.691406 315.046875 687.125 313.078125 L 683.554688 315.960938 C 684.886719 317.632812 686.015625 319.429688 686.941406 321.359375 Z M 691.085938 319.445312 " fill-opacity="1" fill-rule="nonzero"/><path fill="#ffffff" d="M 766.996094 301.40625 L 766.46875 296.792969 C 764.515625 297.007812 762.578125 297.328125 760.664062 297.761719 L 761.628906 302.257812 C 763.402344 301.878906 765.195312 301.59375 766.996094 301.40625 Z M 766.996094 301.40625 " fill-opacity="1" fill-rule="nonzero"/><path fill="#ffffff" d="M 745.273438 311.417969 L 741.65625 308.578125 C 740.074219 310.605469 738.84375 312.828125 737.96875 315.246094 L 742.300781 316.8125 C 743.011719 314.863281 744.003906 313.0625 745.273438 311.417969 Z M 745.273438 311.417969 " fill-opacity="1" fill-rule="nonzero"/><path fill="#ffffff" d="M 755.410156 304.171875 L 753.683594 299.882812 C 751.382812 300.804688 749.21875 301.972656 747.183594 303.390625 L 749.835938 307.171875 C 751.574219 305.953125 753.433594 304.953125 755.410156 304.171875 Z M 755.410156 304.171875 " fill-opacity="1" fill-rule="nonzero"/><path fill="#ffffff" d="M 741.332031 329.222656 C 741.058594 327.792969 740.929688 326.347656 740.941406 324.886719 C 740.941406 324.320312 740.941406 323.695312 740.941406 323.019531 L 736.335938 322.695312 C 736.335938 323.457031 736.335938 324.195312 736.335938 325.003906 C 736.316406 326.820312 736.496094 328.621094 736.863281 330.402344 Z M 741.332031 329.222656 " fill-opacity="1" fill-rule="nonzero"/><path fill="#ffffff" d="M 813.695312 443.015625 L 815.699219 447.167969 C 818.019531 446.074219 820.117188 444.652344 821.992188 442.898438 L 818.8125 439.554688 C 817.28125 440.96875 815.578125 442.121094 813.695312 443.015625 Z M 813.695312 443.015625 " fill-opacity="1" fill-rule="nonzero"/><path fill="#ffffff" d="M 801.117188 446.613281 L 801.785156 451.226562 C 804.167969 450.878906 806.515625 450.386719 808.835938 449.75 L 807.613281 445.296875 C 805.476562 445.867188 803.308594 446.304688 801.117188 446.613281 Z M 801.117188 446.613281 " fill-opacity="1" fill-rule="nonzero"/><path fill="#ffffff" d="M 720.136719 390.304688 C 719.238281 390.304688 718.34375 390.351562 717.449219 390.4375 C 716.554688 390.527344 715.667969 390.660156 714.785156 390.835938 C 713.902344 391.007812 713.03125 391.226562 712.171875 391.488281 C 711.3125 391.75 710.46875 392.054688 709.636719 392.398438 C 708.808594 392.742188 707.996094 393.125 707.203125 393.550781 C 706.410156 393.972656 705.640625 394.4375 704.894531 394.9375 C 704.148438 395.4375 703.425781 395.972656 702.730469 396.542969 C 702.035156 397.113281 701.371094 397.714844 700.734375 398.351562 C 700.101562 398.988281 699.496094 399.65625 698.929688 400.351562 C 698.359375 401.046875 697.824219 401.769531 697.324219 402.515625 C 696.824219 403.265625 696.363281 404.035156 695.941406 404.828125 C 695.515625 405.621094 695.132812 406.433594 694.789062 407.265625 C 694.445312 408.097656 694.140625 408.941406 693.882812 409.804688 C 693.621094 410.664062 693.402344 411.535156 693.226562 412.417969 C 693.050781 413.300781 692.917969 414.191406 692.832031 415.085938 C 692.742188 415.980469 692.699219 416.878906 692.699219 417.777344 C 692.699219 418.679688 692.742188 419.578125 692.832031 420.472656 C 692.917969 421.367188 693.050781 422.257812 693.226562 423.140625 C 693.402344 424.019531 693.621094 424.894531 693.882812 425.753906 C 694.140625 426.613281 694.445312 427.460938 694.789062 428.292969 C 695.132812 429.125 695.515625 429.9375 695.941406 430.730469 C 696.363281 431.523438 696.824219 432.292969 697.324219 433.042969 C 697.824219 433.789062 698.359375 434.511719 698.929688 435.207031 C 699.496094 435.902344 700.101562 436.570312 700.734375 437.207031 C 701.371094 437.839844 702.035156 438.445312 702.730469 439.015625 C 703.425781 439.585938 704.148438 440.121094 704.894531 440.621094 C 705.640625 441.121094 706.410156 441.582031 707.203125 442.007812 C 707.996094 442.433594 708.808594 442.816406 709.636719 443.160156 C 710.46875 443.503906 711.3125 443.808594 712.171875 444.070312 C 713.03125 444.332031 713.902344 444.546875 714.785156 444.722656 C 715.667969 444.898438 716.554688 445.03125 717.449219 445.121094 C 718.34375 445.207031 719.238281 445.253906 720.136719 445.253906 C 721.035156 445.253906 721.933594 445.207031 722.828125 445.121094 C 723.722656 445.03125 724.609375 444.898438 725.492188 444.722656 C 726.371094 444.546875 727.242188 444.332031 728.101562 444.070312 C 728.964844 443.808594 729.808594 443.503906 730.636719 443.160156 C 731.46875 442.816406 732.28125 442.433594 733.074219 442.007812 C 733.863281 441.582031 734.636719 441.121094 735.382812 440.621094 C 736.128906 440.121094 736.851562 439.585938 737.546875 439.015625 C 738.238281 438.445312 738.90625 437.839844 739.539062 437.207031 C 740.175781 436.570312 740.777344 435.902344 741.347656 435.207031 C 741.917969 434.511719 742.453125 433.789062 742.953125 433.042969 C 743.453125 432.292969 743.914062 431.523438 744.335938 430.730469 C 744.761719 429.9375 745.144531 429.125 745.488281 428.292969 C 745.832031 427.460938 746.132812 426.613281 746.394531 425.753906 C 746.65625 424.894531 746.875 424.019531 747.050781 423.140625 C 747.226562 422.257812 747.355469 421.367188 747.445312 420.472656 C 747.53125 419.578125 747.578125 418.679688 747.578125 417.777344 C 747.574219 416.878906 747.53125 415.980469 747.441406 415.085938 C 747.355469 414.191406 747.222656 413.304688 747.046875 412.421875 C 746.871094 411.539062 746.652344 410.667969 746.390625 409.808594 C 746.128906 408.945312 745.824219 408.101562 745.480469 407.269531 C 745.136719 406.4375 744.753906 405.625 744.328125 404.832031 C 743.90625 404.039062 743.445312 403.269531 742.945312 402.519531 C 742.445312 401.773438 741.910156 401.050781 741.339844 400.355469 C 740.769531 399.660156 740.167969 398.996094 739.535156 398.359375 C 738.898438 397.722656 738.234375 397.121094 737.539062 396.550781 C 736.84375 395.980469 736.125 395.441406 735.375 394.941406 C 734.628906 394.445312 733.859375 393.980469 733.066406 393.558594 C 732.277344 393.132812 731.464844 392.75 730.636719 392.402344 C 729.804688 392.058594 728.960938 391.757812 728.101562 391.496094 C 727.242188 391.234375 726.371094 391.015625 725.488281 390.839844 C 724.609375 390.660156 723.722656 390.53125 722.828125 390.441406 C 721.933594 390.351562 721.035156 390.308594 720.136719 390.304688 Z M 737.714844 403.199219 C 734.800781 403.996094 731.84375 404.578125 728.847656 404.953125 C 727.660156 401.441406 725.964844 398.195312 723.753906 395.21875 C 726.488281 395.660156 729.054688 396.566406 731.460938 397.941406 C 733.863281 399.316406 735.949219 401.066406 737.714844 403.199219 Z M 719.792969 438.722656 C 717.796875 436.121094 716.261719 433.265625 715.183594 430.167969 C 718.257812 429.96875 721.328125 429.96875 724.398438 430.167969 C 723.335938 433.273438 721.800781 436.125 719.792969 438.722656 Z M 713.917969 425.574219 C 713.558594 423.839844 713.328125 422.085938 713.226562 420.316406 L 726.449219 420.316406 C 726.359375 422.097656 726.128906 423.855469 725.757812 425.597656 C 721.8125 425.285156 717.867188 425.277344 713.917969 425.574219 Z M 724.148438 405.347656 C 721.273438 405.507812 718.402344 405.507812 715.53125 405.347656 C 716.582031 402.535156 718.019531 399.933594 719.839844 397.550781 C 721.667969 399.929688 723.105469 402.527344 724.148438 405.347656 Z M 719.746094 410.167969 C 721.613281 410.167969 723.546875 410.167969 725.574219 409.9375 C 726.011719 411.835938 726.304688 413.757812 726.449219 415.703125 L 713.25 415.703125 C 713.359375 413.765625 713.636719 411.851562 714.078125 409.960938 C 715.851562 410.121094 717.71875 410.214844 719.699219 410.214844 Z M 708.6875 415.65625 L 697.421875 415.65625 C 697.671875 412.808594 698.441406 410.113281 699.726562 407.558594 C 702.9375 408.433594 706.191406 409.070312 709.496094 409.476562 C 709.054688 411.53125 708.773438 413.605469 708.640625 415.703125 Z M 708.6875 420.269531 C 708.789062 422.199219 709.019531 424.113281 709.378906 426.015625 C 706.140625 426.414062 702.945312 427.046875 699.796875 427.90625 C 698.570312 425.5 697.800781 422.953125 697.492188 420.269531 Z M 731.035156 420.269531 L 742.898438 420.269531 C 742.546875 423.152344 741.671875 425.867188 740.273438 428.414062 C 736.96875 427.390625 733.605469 426.621094 730.183594 426.105469 C 730.605469 424.195312 730.894531 422.265625 731.058594 420.316406 Z M 731.035156 415.65625 C 730.914062 413.558594 730.632812 411.480469 730.183594 409.429688 C 733.671875 408.914062 737.105469 408.144531 740.480469 407.121094 C 741.867188 409.78125 742.699219 412.601562 742.96875 415.585938 Z M 715.851562 395.3125 C 713.6875 398.261719 712.011719 401.464844 710.832031 404.929688 C 708.007812 404.601562 705.210938 404.109375 702.445312 403.453125 C 704.117188 401.359375 706.097656 399.617188 708.386719 398.226562 C 710.675781 396.835938 713.132812 395.878906 715.761719 395.359375 Z M 702.351562 432.058594 C 705.039062 431.464844 707.75 431.019531 710.484375 430.71875 C 711.558594 434.097656 713.09375 437.25 715.09375 440.175781 C 712.570312 439.585938 710.21875 438.597656 708.03125 437.203125 C 705.847656 435.8125 703.953125 434.097656 702.351562 432.058594 Z M 724.355469 440.222656 C 726.417969 437.296875 728 434.128906 729.101562 430.71875 C 732.011719 431.109375 734.882812 431.695312 737.714844 432.472656 C 736.007812 434.503906 734.003906 436.183594 731.710938 437.515625 C 729.414062 438.847656 726.964844 439.75 724.355469 440.222656 Z M 724.355469 440.222656 " fill-opacity="1" fill-rule="nonzero"/><path fill="#ffffff" d="M 731.058594 488.25 L 709.976562 488.25 C 709.609375 488.25 709.242188 488.285156 708.878906 488.359375 C 708.511719 488.429688 708.160156 488.539062 707.816406 488.679688 C 707.476562 488.820312 707.152344 488.996094 706.84375 489.203125 C 706.535156 489.40625 706.25 489.640625 705.988281 489.90625 C 705.726562 490.167969 705.492188 490.453125 705.285156 490.761719 C 705.078125 491.070312 704.90625 491.394531 704.761719 491.738281 C 704.621094 492.082031 704.515625 492.433594 704.441406 492.796875 C 704.371094 493.160156 704.332031 493.53125 704.332031 493.902344 C 704.332031 494.273438 704.371094 494.640625 704.441406 495.003906 C 704.515625 495.367188 704.621094 495.71875 704.761719 496.0625 C 704.90625 496.40625 705.078125 496.730469 705.285156 497.039062 C 705.492188 497.347656 705.726562 497.632812 705.988281 497.898438 C 706.25 498.160156 706.535156 498.394531 706.84375 498.601562 C 707.152344 498.804688 707.476562 498.980469 707.816406 499.121094 C 708.160156 499.265625 708.511719 499.371094 708.878906 499.445312 C 709.242188 499.515625 709.609375 499.550781 709.976562 499.550781 L 731.058594 499.550781 C 731.429688 499.550781 731.796875 499.515625 732.160156 499.445312 C 732.523438 499.371094 732.875 499.265625 733.21875 499.121094 C 733.5625 498.980469 733.886719 498.804688 734.195312 498.601562 C 734.503906 498.394531 734.789062 498.160156 735.050781 497.898438 C 735.3125 497.632812 735.546875 497.347656 735.75 497.039062 C 735.957031 496.730469 736.132812 496.40625 736.273438 496.0625 C 736.414062 495.71875 736.523438 495.367188 736.59375 495.003906 C 736.667969 494.640625 736.703125 494.273438 736.703125 493.902344 C 736.703125 493.53125 736.667969 493.160156 736.59375 492.796875 C 736.523438 492.433594 736.414062 492.082031 736.273438 491.738281 C 736.132812 491.394531 735.957031 491.070312 735.75 490.761719 C 735.546875 490.453125 735.3125 490.167969 735.050781 489.90625 C 734.789062 489.640625 734.503906 489.40625 734.195312 489.203125 C 733.886719 488.996094 733.5625 488.820312 733.21875 488.679688 C 732.875 488.539062 732.523438 488.429688 732.160156 488.359375 C 731.796875 488.285156 731.429688 488.25 731.058594 488.25 Z M 731.058594 494.9375 L 709.976562 494.9375 C 709.839844 494.9375 709.707031 494.914062 709.582031 494.859375 C 709.453125 494.808594 709.34375 494.730469 709.246094 494.632812 C 709.148438 494.539062 709.074219 494.425781 709.019531 494.296875 C 708.96875 494.171875 708.941406 494.039062 708.941406 493.902344 C 708.949219 493.617188 709.050781 493.375 709.25 493.171875 C 709.453125 492.972656 709.695312 492.867188 709.976562 492.863281 L 731.058594 492.863281 C 731.195312 492.863281 731.328125 492.890625 731.453125 492.941406 C 731.582031 492.996094 731.695312 493.070312 731.792969 493.167969 C 731.886719 493.265625 731.964844 493.375 732.015625 493.503906 C 732.070312 493.628906 732.09375 493.761719 732.09375 493.902344 C 732.09375 494.039062 732.070312 494.171875 732.015625 494.296875 C 731.964844 494.425781 731.886719 494.539062 731.792969 494.632812 C 731.695312 494.730469 731.582031 494.808594 731.453125 494.859375 C 731.328125 494.914062 731.195312 494.9375 731.058594 494.9375 Z M 731.058594 494.9375 " fill-opacity="1" fill-rule="nonzero"/><g clip-path="url(#8228cfe200)"><path fill="#ffffff" d="M 800.679688 501.582031 C 800.472656 501.003906 799.941406 499.621094 799.320312 498.03125 C 798.46875 495.722656 796.855469 491.617188 796.648438 490.578125 C 796.648438 486.472656 796.855469 482.296875 797.039062 478.238281 C 797.539062 470.859375 797.585938 463.476562 797.179688 456.09375 C 796.371094 448.578125 794.664062 441.273438 792.0625 434.179688 L 788.238281 422.414062 C 787.691406 420.675781 787.414062 418.890625 787.410156 417.0625 L 787.410156 385.945312 C 787.40625 385.304688 787.175781 384.757812 786.71875 384.308594 C 786.257812 383.851562 785.707031 383.628906 785.058594 383.640625 C 783.765625 383.65625 782.484375 383.800781 781.21875 384.074219 C 779.953125 384.347656 778.726562 384.742188 777.539062 385.261719 C 776.351562 385.78125 775.226562 386.410156 774.167969 387.15625 C 773.105469 387.902344 772.128906 388.742188 771.238281 389.683594 L 771.238281 343.824219 C 771.242188 343.46875 771.214844 343.117188 771.148438 342.769531 C 771.085938 342.417969 770.984375 342.078125 770.851562 341.75 C 770.71875 341.417969 770.554688 341.105469 770.355469 340.808594 C 770.160156 340.515625 769.9375 340.238281 769.683594 339.988281 C 769.433594 339.738281 769.160156 339.515625 768.863281 339.320312 C 768.566406 339.125 768.25 338.960938 767.921875 338.828125 C 767.59375 338.695312 767.253906 338.597656 766.902344 338.535156 C 766.554688 338.472656 766.203125 338.445312 765.847656 338.453125 L 675.304688 338.453125 C 674.960938 338.453125 674.617188 338.484375 674.277344 338.554688 C 673.9375 338.621094 673.609375 338.722656 673.289062 338.855469 C 672.972656 338.988281 672.667969 339.148438 672.378906 339.34375 C 672.09375 339.535156 671.828125 339.753906 671.582031 340 C 671.339844 340.246094 671.121094 340.511719 670.929688 340.800781 C 670.738281 341.089844 670.578125 341.394531 670.445312 341.714844 C 670.316406 342.035156 670.214844 342.363281 670.148438 342.703125 C 670.082031 343.042969 670.050781 343.386719 670.054688 343.734375 L 670.054688 386.707031 L 667.632812 386.707031 C 667.167969 386.707031 666.707031 386.753906 666.246094 386.84375 C 665.789062 386.933594 665.347656 387.070312 664.914062 387.25 C 664.484375 387.425781 664.074219 387.644531 663.6875 387.902344 C 663.296875 388.164062 662.9375 388.457031 662.609375 388.789062 C 662.277344 389.117188 661.984375 389.476562 661.722656 389.863281 C 661.464844 390.25 661.242188 390.660156 661.0625 391.09375 C 660.882812 391.523438 660.75 391.96875 660.65625 392.425781 C 660.5625 392.882812 660.515625 393.34375 660.515625 393.8125 L 660.515625 403.871094 C 660.519531 404.507812 660.609375 405.132812 660.785156 405.746094 C 660.957031 406.355469 661.207031 406.9375 661.535156 407.480469 C 661.863281 408.027344 662.257812 408.519531 662.71875 408.960938 C 663.179688 409.398438 663.6875 409.773438 664.246094 410.074219 C 663.6875 410.378906 663.179688 410.75 662.722656 411.191406 C 662.265625 411.628906 661.871094 412.125 661.546875 412.667969 C 661.21875 413.214844 660.96875 413.792969 660.800781 414.40625 C 660.628906 415.019531 660.542969 415.644531 660.539062 416.28125 L 660.539062 426.335938 C 660.542969 426.972656 660.632812 427.597656 660.800781 428.207031 C 660.972656 428.820312 661.222656 429.398438 661.546875 429.945312 C 661.875 430.492188 662.265625 430.984375 662.722656 431.425781 C 663.183594 431.863281 663.691406 432.238281 664.246094 432.542969 C 663.691406 432.847656 663.183594 433.21875 662.722656 433.660156 C 662.265625 434.101562 661.875 434.59375 661.546875 435.140625 C 661.222656 435.683594 660.972656 436.261719 660.800781 436.875 C 660.632812 437.488281 660.542969 438.113281 660.539062 438.746094 L 660.539062 448.804688 C 660.542969 449.441406 660.628906 450.066406 660.800781 450.683594 C 660.972656 451.296875 661.21875 451.875 661.546875 452.425781 C 661.871094 452.972656 662.265625 453.464844 662.722656 453.910156 C 663.179688 454.351562 663.6875 454.726562 664.246094 455.03125 C 663.6875 455.332031 663.175781 455.703125 662.714844 456.144531 C 662.253906 456.582031 661.859375 457.074219 661.527344 457.621094 C 661.199219 458.167969 660.949219 458.746094 660.777344 459.359375 C 660.605469 459.976562 660.519531 460.601562 660.515625 461.238281 L 660.515625 471.273438 C 660.515625 471.738281 660.5625 472.203125 660.65625 472.660156 C 660.75 473.117188 660.882812 473.5625 661.0625 473.992188 C 661.242188 474.421875 661.464844 474.832031 661.722656 475.21875 C 661.984375 475.609375 662.277344 475.96875 662.609375 476.296875 C 662.9375 476.625 663.296875 476.921875 663.6875 477.179688 C 664.074219 477.4375 664.484375 477.65625 664.914062 477.835938 C 665.347656 478.015625 665.789062 478.148438 666.246094 478.238281 C 666.707031 478.332031 667.167969 478.375 667.632812 478.375 L 670.054688 478.375 L 670.054688 500.429688 C 670.054688 500.773438 670.085938 501.117188 670.152344 501.457031 C 670.222656 501.796875 670.320312 502.125 670.453125 502.445312 C 670.585938 502.765625 670.746094 503.066406 670.9375 503.355469 C 671.128906 503.644531 671.347656 503.910156 671.589844 504.15625 C 671.832031 504.402344 672.097656 504.621094 672.386719 504.8125 C 672.671875 505.003906 672.976562 505.167969 673.292969 505.300781 C 673.613281 505.4375 673.941406 505.535156 674.28125 505.605469 C 674.617188 505.675781 674.960938 505.710938 675.304688 505.710938 L 715.96875 505.710938 C 720.390625 510.945312 725 515.238281 733.0625 516.089844 L 738.867188 539.136719 C 738.929688 539.390625 739.035156 539.628906 739.179688 539.847656 C 739.324219 540.070312 739.5 540.257812 739.710938 540.417969 C 739.921875 540.578125 740.152344 540.699219 740.402344 540.777344 C 740.652344 540.859375 740.910156 540.894531 741.171875 540.886719 L 741.65625 540.886719 L 805.289062 527.601562 C 805.941406 527.464844 806.4375 527.109375 806.785156 526.539062 C 807.144531 525.980469 807.230469 525.378906 807.039062 524.742188 Z M 674.660156 343.824219 C 674.632812 343.628906 674.683594 343.453125 674.8125 343.300781 C 674.941406 343.148438 675.105469 343.070312 675.304688 343.066406 L 765.847656 343.066406 C 766.027344 343.070312 766.183594 343.136719 766.3125 343.265625 C 766.441406 343.394531 766.507812 343.550781 766.515625 343.734375 L 766.515625 388.554688 C 766.515625 390.03125 766.515625 391.691406 766.515625 393.167969 C 766.515625 394.644531 766.515625 396.625 766.515625 397.78125 C 766.050781 399.503906 765.828125 401.253906 765.847656 403.039062 L 765.429688 438.886719 L 763.632812 440.316406 L 763.632812 352.867188 C 763.636719 352.527344 763.605469 352.191406 763.539062 351.855469 C 763.472656 351.523438 763.378906 351.199219 763.25 350.882812 C 763.121094 350.570312 762.960938 350.269531 762.773438 349.988281 C 762.585938 349.703125 762.371094 349.441406 762.132812 349.199219 C 761.890625 348.957031 761.628906 348.742188 761.347656 348.554688 C 761.066406 348.363281 760.769531 348.203125 760.453125 348.074219 C 760.140625 347.941406 759.816406 347.84375 759.484375 347.777344 C 759.148438 347.710938 758.8125 347.679688 758.472656 347.679688 L 683.046875 347.679688 C 682.707031 347.679688 682.371094 347.710938 682.039062 347.777344 C 681.707031 347.84375 681.386719 347.941406 681.070312 348.070312 C 680.757812 348.203125 680.460938 348.359375 680.179688 348.550781 C 679.898438 348.738281 679.636719 348.953125 679.398438 349.191406 C 679.15625 349.429688 678.945312 349.691406 678.753906 349.972656 C 678.566406 350.257812 678.410156 350.554688 678.277344 350.867188 C 678.148438 351.179688 678.050781 351.503906 677.984375 351.835938 C 677.917969 352.171875 677.886719 352.507812 677.886719 352.84375 L 677.886719 387.101562 L 676.988281 386.890625 L 676.433594 386.890625 C 675.867188 386.855469 675.296875 386.855469 674.730469 386.890625 Z M 749.1875 482.503906 L 683.046875 482.503906 C 682.894531 482.503906 682.761719 482.453125 682.65625 482.34375 C 682.546875 482.234375 682.492188 482.105469 682.492188 481.953125 L 682.492188 475.585938 L 683.300781 474.847656 C 684.4375 473.707031 685.3125 472.394531 685.933594 470.910156 C 686.550781 469.425781 686.863281 467.875 686.871094 466.265625 C 686.871094 465.78125 686.871094 465.296875 686.871094 464.835938 C 686.871094 464.375 686.871094 464.535156 686.871094 464.375 C 686.871094 464.214844 686.871094 463.75 686.710938 463.429688 C 686.546875 463.105469 686.410156 463.015625 686.363281 463.015625 C 686.316406 463.015625 686.203125 462.484375 686.109375 462.207031 C 686.042969 462.019531 685.96875 461.832031 685.878906 461.652344 C 685.878906 461.421875 685.671875 461.167969 685.558594 460.9375 L 685.257812 460.382812 L 684.980469 459.621094 C 684.84375 459.4375 684.726562 459.253906 684.613281 459.070312 L 684.015625 458.398438 L 683.597656 457.894531 L 683.023438 457.339844 L 682.679688 457.015625 L 682.679688 453.117188 C 682.953125 452.863281 683.230469 452.632812 683.484375 452.355469 C 684.636719 451.226562 685.519531 449.917969 686.140625 448.429688 C 686.761719 446.941406 687.066406 445.390625 687.054688 443.777344 C 687.054688 443.292969 687.054688 442.808594 687.054688 442.34375 C 687.054688 441.882812 687.054688 442.023438 687.054688 441.882812 C 687.054688 441.746094 687.054688 441.261719 686.894531 440.960938 C 686.734375 440.660156 686.777344 440.59375 686.734375 440.40625 C 686.6875 440.222656 686.570312 439.878906 686.480469 439.601562 C 686.414062 439.410156 686.335938 439.226562 686.25 439.046875 C 686.25 438.816406 686.042969 438.5625 685.925781 438.332031 L 685.625 437.777344 L 684.980469 437.132812 L 684.613281 436.601562 L 684.128906 436.003906 C 683.992188 435.839844 683.851562 435.65625 683.714844 435.519531 C 683.578125 435.378906 683.324219 435.125 683.140625 434.941406 L 682.679688 434.527344 L 682.679688 430.71875 L 683.484375 429.980469 C 684.628906 428.847656 685.507812 427.535156 686.128906 426.050781 C 686.746094 424.5625 687.054688 423.011719 687.054688 421.402344 C 687.054688 420.917969 687.054688 420.433594 687.054688 419.96875 C 687.054688 419.507812 687.054688 419.648438 687.054688 419.507812 C 687.054688 419.371094 687.054688 418.886719 686.894531 418.585938 C 686.734375 418.285156 686.777344 418.21875 686.734375 418.03125 C 686.6875 417.847656 686.570312 417.503906 686.480469 417.226562 C 686.414062 417.035156 686.335938 416.851562 686.25 416.671875 C 686.15625 416.425781 686.046875 416.1875 685.925781 415.957031 L 685.625 415.402344 L 684.980469 414.574219 C 684.847656 414.40625 684.722656 414.226562 684.613281 414.042969 L 684.128906 413.464844 L 683.714844 412.957031 L 683.140625 412.40625 L 682.679688 411.988281 L 682.679688 408.160156 C 682.964844 407.933594 683.230469 407.6875 683.484375 407.421875 C 684.632812 406.292969 685.519531 404.980469 686.136719 403.492188 C 686.757812 402.003906 687.0625 400.453125 687.054688 398.839844 C 687.054688 398.355469 687.054688 397.871094 687.054688 397.410156 C 687.054688 396.949219 687.054688 397.089844 687.054688 396.949219 C 687.054688 396.8125 687.054688 396.328125 686.894531 396.003906 C 686.734375 395.679688 686.777344 395.65625 686.734375 395.472656 C 686.6875 395.289062 686.570312 394.941406 686.480469 394.664062 C 686.414062 394.476562 686.335938 394.292969 686.25 394.113281 C 686.15625 393.867188 686.046875 393.628906 685.925781 393.398438 L 685.625 392.84375 L 684.980469 392.175781 C 684.847656 392.007812 684.722656 391.832031 684.613281 391.644531 L 684.128906 391.066406 L 683.714844 390.558594 L 683.140625 390.007812 L 682.679688 389.589844 L 682.679688 352.867188 C 682.671875 352.710938 682.722656 352.578125 682.832031 352.46875 C 682.941406 352.359375 683.074219 352.308594 683.230469 352.316406 L 758.472656 352.316406 C 758.625 352.316406 758.757812 352.367188 758.863281 352.476562 C 758.972656 352.585938 759.027344 352.714844 759.027344 352.867188 L 759.027344 444.746094 C 756.476562 447.707031 754.351562 450.949219 752.648438 454.46875 C 750.945312 457.984375 749.722656 461.664062 748.980469 465.503906 C 747.972656 471.183594 748.039062 476.851562 749.1875 482.503906 Z M 678.898438 415.058594 C 679.945312 415.75 680.769531 416.652344 681.363281 417.761719 C 681.960938 418.867188 682.261719 420.050781 682.261719 421.308594 C 682.253906 422.3125 682.050781 423.273438 681.648438 424.195312 C 681.25 425.117188 680.6875 425.921875 679.960938 426.613281 C 679.269531 427.351562 678.464844 427.921875 677.539062 428.324219 C 676.613281 428.722656 675.644531 428.921875 674.636719 428.921875 L 667.632812 428.921875 C 667.300781 428.921875 666.980469 428.863281 666.675781 428.738281 C 666.367188 428.613281 666.09375 428.433594 665.859375 428.199219 C 665.625 427.964844 665.441406 427.695312 665.316406 427.386719 C 665.1875 427.082031 665.121094 426.761719 665.121094 426.429688 L 665.121094 416.28125 C 665.121094 415.949219 665.1875 415.628906 665.3125 415.320312 C 665.441406 415.015625 665.625 414.742188 665.859375 414.511719 C 666.09375 414.277344 666.367188 414.097656 666.675781 413.972656 C 666.980469 413.847656 667.300781 413.785156 667.632812 413.789062 L 674.730469 413.789062 C 676.25 413.78125 677.640625 414.203125 678.898438 415.058594 Z M 678.898438 437.523438 C 679.945312 438.21875 680.769531 439.121094 681.363281 440.226562 C 681.960938 441.335938 682.261719 442.519531 682.261719 443.777344 C 682.253906 444.785156 682.050781 445.75 681.652344 446.675781 C 681.25 447.597656 680.6875 448.410156 679.960938 449.105469 C 679.601562 449.453125 679.21875 449.765625 678.808594 450.050781 C 677.542969 450.886719 676.152344 451.300781 674.636719 451.296875 L 667.632812 451.296875 C 667.300781 451.296875 666.980469 451.238281 666.675781 451.113281 C 666.367188 450.988281 666.09375 450.808594 665.859375 450.574219 C 665.625 450.339844 665.441406 450.070312 665.316406 449.761719 C 665.1875 449.457031 665.121094 449.136719 665.121094 448.804688 L 665.121094 438.746094 C 665.121094 438.414062 665.1875 438.09375 665.3125 437.789062 C 665.441406 437.480469 665.625 437.210938 665.859375 436.976562 C 666.09375 436.742188 666.367188 436.5625 666.675781 436.4375 C 666.980469 436.3125 667.300781 436.253906 667.632812 436.257812 L 674.730469 436.257812 C 676.265625 436.28125 677.652344 436.742188 678.898438 437.640625 Z M 665.078125 393.695312 C 665.078125 393.363281 665.140625 393.046875 665.269531 392.738281 C 665.394531 392.429688 665.578125 392.160156 665.8125 391.925781 C 666.050781 391.691406 666.320312 391.515625 666.628906 391.390625 C 666.9375 391.265625 667.257812 391.203125 667.589844 391.207031 L 674.683594 391.207031 C 676.203125 391.191406 677.589844 391.609375 678.855469 392.453125 C 679.902344 393.144531 680.722656 394.046875 681.320312 395.15625 C 681.914062 396.261719 682.214844 397.445312 682.21875 398.703125 C 682.210938 399.707031 682.007812 400.671875 681.609375 401.589844 C 681.207031 402.511719 680.644531 403.320312 679.914062 404.007812 C 679.226562 404.746094 678.417969 405.316406 677.492188 405.71875 C 676.566406 406.117188 675.601562 406.316406 674.589844 406.316406 L 667.632812 406.316406 C 667.304688 406.316406 666.984375 406.25 666.679688 406.125 C 666.371094 406 666.101562 405.820312 665.867188 405.585938 C 665.632812 405.351562 665.449219 405.082031 665.320312 404.777344 C 665.191406 404.472656 665.125 404.15625 665.121094 403.824219 Z M 667.589844 473.648438 C 667.257812 473.652344 666.9375 473.589844 666.628906 473.464844 C 666.320312 473.339844 666.050781 473.160156 665.8125 472.925781 C 665.578125 472.691406 665.394531 472.421875 665.269531 472.117188 C 665.140625 471.808594 665.078125 471.488281 665.078125 471.15625 L 665.078125 461.238281 C 665.078125 460.90625 665.140625 460.585938 665.269531 460.277344 C 665.394531 459.972656 665.578125 459.703125 665.8125 459.46875 C 666.050781 459.234375 666.320312 459.054688 666.628906 458.929688 C 666.9375 458.804688 667.257812 458.742188 667.589844 458.746094 L 674.683594 458.746094 C 676.203125 458.738281 677.59375 459.160156 678.855469 460.015625 C 679.902344 460.710938 680.722656 461.609375 681.320312 462.71875 C 681.914062 463.824219 682.214844 465.007812 682.21875 466.265625 C 682.207031 467.269531 682.003906 468.234375 681.605469 469.152344 C 681.203125 470.074219 680.640625 470.878906 679.914062 471.570312 C 679.554688 471.917969 679.171875 472.234375 678.761719 472.515625 C 677.5 473.367188 676.109375 473.78125 674.589844 473.761719 L 667.632812 473.761719 Z M 674.613281 500.3125 L 674.613281 478.261719 C 675.183594 478.296875 675.75 478.296875 676.320312 478.261719 L 676.894531 478.261719 L 677.769531 478.101562 L 677.769531 482.066406 C 677.769531 482.40625 677.804688 482.742188 677.871094 483.074219 C 677.9375 483.40625 678.035156 483.730469 678.164062 484.042969 C 678.292969 484.359375 678.453125 484.65625 678.640625 484.9375 C 678.828125 485.21875 679.042969 485.480469 679.28125 485.722656 C 679.523438 485.960938 679.78125 486.175781 680.0625 486.363281 C 680.347656 486.550781 680.644531 486.710938 680.957031 486.839844 C 681.269531 486.972656 681.59375 487.070312 681.925781 487.136719 C 682.257812 487.199219 682.59375 487.234375 682.929688 487.234375 L 750.363281 487.234375 C 750.78125 488.671875 751.28125 490.078125 751.863281 491.457031 C 751.953125 491.703125 752.046875 491.933594 752.136719 492.148438 L 752.554688 493.117188 L 753.429688 494.9375 C 753.636719 495.421875 753.890625 495.882812 754.097656 496.277344 C 754.742188 497.476562 755.5 498.769531 756.402344 500.058594 C 756.511719 500.195312 756.558594 500.347656 756.539062 500.519531 C 756.570312 500.628906 756.570312 500.734375 756.539062 500.84375 C 756.414062 501.105469 756.207031 501.230469 755.917969 501.214844 L 675.304688 501.214844 C 675.207031 501.210938 675.117188 501.1875 675.027344 501.144531 C 674.941406 501.105469 674.863281 501.042969 674.804688 500.96875 C 674.742188 500.894531 674.699219 500.808594 674.671875 500.714844 C 674.648438 500.621094 674.644531 500.523438 674.660156 500.429688 Z M 742.808594 535.765625 L 737.691406 515.605469 C 738.136719 515.160156 738.359375 514.621094 738.363281 513.992188 C 738.363281 513.6875 738.304688 513.390625 738.1875 513.109375 C 738.070312 512.828125 737.902344 512.578125 737.6875 512.359375 C 737.46875 512.144531 737.222656 511.976562 736.9375 511.859375 C 736.65625 511.742188 736.363281 511.683594 736.058594 511.683594 C 734.757812 511.730469 733.464844 511.632812 732.1875 511.390625 C 730.910156 511.148438 729.671875 510.769531 728.476562 510.253906 C 727.28125 509.734375 726.15625 509.09375 725.105469 508.328125 C 724.050781 507.5625 723.09375 506.691406 722.234375 505.710938 L 755.777344 505.710938 C 756.261719 505.710938 756.734375 505.648438 757.203125 505.519531 C 757.667969 505.390625 758.105469 505.203125 758.519531 504.953125 C 758.9375 504.707031 759.308594 504.40625 759.640625 504.054688 C 759.976562 503.707031 760.253906 503.316406 760.484375 502.890625 C 760.710938 502.464844 760.875 502.015625 760.980469 501.542969 C 761.085938 501.070312 761.125 500.59375 761.101562 500.109375 C 761.078125 499.625 760.988281 499.15625 760.835938 498.695312 C 760.683594 498.238281 760.472656 497.808594 760.203125 497.40625 L 759.949219 496.992188 C 759.671875 496.554688 759.371094 496.09375 759.117188 495.652344 C 758.867188 495.214844 758.449219 494.5 758.152344 493.921875 C 757.933594 493.574219 757.742188 493.214844 757.574219 492.839844 C 756.953125 491.617188 756.421875 490.347656 755.917969 489.078125 L 755.5 487.972656 C 755.273438 487.304688 755.085938 486.65625 754.878906 485.988281 C 754.671875 485.320312 754.488281 484.835938 754.351562 484.234375 L 754.351562 483.796875 C 752.859375 478.058594 752.621094 472.269531 753.636719 466.425781 C 754.316406 462.847656 755.460938 459.421875 757.078125 456.15625 C 758.691406 452.890625 760.71875 449.902344 763.152344 447.191406 C 764.949219 445.191406 766.953125 443.433594 769.164062 441.90625 L 770.132812 441.214844 L 770.453125 403.039062 C 770.46875 401.769531 770.644531 400.523438 770.984375 399.300781 L 771.167969 398.886719 L 771.167969 398.75 C 771.5625 397.449219 772.128906 396.226562 772.863281 395.082031 C 773.597656 393.9375 774.472656 392.914062 775.488281 392.011719 C 776.503906 391.109375 777.625 390.363281 778.847656 389.773438 C 780.070312 389.179688 781.351562 388.765625 782.6875 388.53125 L 782.6875 417.109375 C 782.730469 419.402344 783.125 421.628906 783.863281 423.800781 L 787.664062 435.585938 C 790.160156 442.304688 791.792969 449.222656 792.570312 456.347656 C 792.996094 463.527344 792.996094 470.710938 792.570312 477.890625 C 792.363281 481.976562 792.179688 486.21875 792.15625 490.417969 C 792.15625 491.363281 792.546875 492.722656 795.152344 499.644531 C 795.726562 501.144531 796.234375 502.414062 796.371094 502.875 L 802.0625 523.449219 Z M 742.808594 535.765625 " fill-opacity="1" fill-rule="nonzero"/></g></svg>