<svg xmlns="http://www.w3.org/2000/svg" xmlns:xlink="http://www.w3.org/1999/xlink" width="1920" zoomAndPan="magnify" viewBox="0 0 1440 809.999993" height="1080" preserveAspectRatio="xMidYMid meet" version="1.0"><defs><clipPath id="aedb72aca8"><path d="M 641 520 L 709 520 L 709 588 L 641 588 Z M 641 520 " clip-rule="nonzero"/></clipPath></defs><path fill="#040606" d="M 557.71875 306.042969 C 538.589844 306.042969 523.078125 290.554688 523.078125 271.4375 C 523.078125 252.324219 538.589844 236.832031 557.71875 236.832031 C 576.847656 236.832031 592.355469 252.324219 592.355469 271.4375 C 592.355469 290.554688 576.847656 306.042969 557.71875 306.042969 Z M 557.71875 232.246094 C 536.054688 232.246094 518.492188 249.792969 518.492188 271.4375 C 518.492188 293.082031 536.054688 310.625 557.71875 310.625 C 579.382812 310.625 596.945312 293.082031 596.945312 271.4375 C 596.945312 249.792969 579.382812 232.246094 557.71875 232.246094 " fill-opacity="1" fill-rule="nonzero"/><path fill="#ffffff" d="M 557.71875 306.042969 C 538.589844 306.042969 523.078125 290.554688 523.078125 271.4375 C 523.078125 252.324219 538.589844 236.832031 557.71875 236.832031 C 576.847656 236.832031 592.355469 252.324219 592.355469 271.4375 C 592.355469 290.554688 576.847656 306.042969 557.71875 306.042969 " fill-opacity="1" fill-rule="nonzero"/><path fill="#040606" d="M 545.667969 269.625 C 545.667969 272.894531 543.015625 275.539062 539.746094 275.539062 C 536.472656 275.539062 533.824219 272.894531 533.824219 269.625 C 533.824219 266.359375 536.472656 263.710938 539.746094 263.710938 C 543.015625 263.710938 545.667969 266.359375 545.667969 269.625 " fill-opacity="1" fill-rule="nonzero"/><path fill="#040606" d="M 529.90625 285.945312 C 529.90625 280.515625 534.3125 276.117188 539.746094 276.117188 C 545.179688 276.117188 549.585938 280.515625 549.585938 285.945312 L 529.90625 285.945312 " fill-opacity="1" fill-rule="nonzero"/><path fill="#040606" d="M 581.613281 269.625 C 581.613281 272.894531 578.960938 275.539062 575.695312 275.539062 C 572.421875 275.539062 569.773438 272.894531 569.773438 269.625 C 569.773438 266.359375 572.421875 263.710938 575.695312 263.710938 C 578.960938 263.710938 581.613281 266.359375 581.613281 269.625 " fill-opacity="1" fill-rule="nonzero"/><path fill="#040606" d="M 565.855469 285.945312 C 565.855469 280.515625 570.257812 276.117188 575.695312 276.117188 C 581.121094 276.117188 585.53125 280.515625 585.53125 285.945312 L 565.855469 285.945312 " fill-opacity="1" fill-rule="nonzero"/><path fill="#040606" d="M 563.351562 259.296875 C 563.351562 262.40625 560.828125 264.929688 557.71875 264.929688 C 554.605469 264.929688 552.082031 262.40625 552.082031 259.296875 C 552.082031 256.191406 554.605469 253.667969 557.71875 253.667969 C 560.828125 253.667969 563.351562 256.191406 563.351562 259.296875 " fill-opacity="1" fill-rule="nonzero"/><path fill="#040606" d="M 548.355469 274.824219 C 548.355469 269.660156 552.546875 265.472656 557.71875 265.472656 C 562.890625 265.472656 567.082031 269.660156 567.082031 274.824219 L 548.355469 274.824219 " fill-opacity="1" fill-rule="nonzero"/><path fill="#040606" d="M 557.71875 253.421875 C 558.300781 253.421875 558.863281 253.503906 559.398438 253.664062 C 559.355469 253.011719 558.820312 252.492188 558.160156 252.492188 L 557.277344 252.492188 C 556.613281 252.492188 556.078125 253.011719 556.039062 253.664062 C 556.570312 253.503906 557.136719 253.421875 557.71875 253.421875 " fill-opacity="1" fill-rule="nonzero"/><path fill="#040606" d="M 566.128906 261.457031 C 567.074219 257.90625 567.152344 249.691406 557.71875 249.691406 C 548.289062 249.691406 548.359375 257.90625 549.3125 261.457031 C 550.234375 264.929688 548.8125 265.992188 548.8125 265.992188 C 548.8125 265.992188 552.570312 266.28125 551.699219 260.632812 C 550.832031 254.988281 555.539062 253.664062 555.539062 253.664062 C 555.625 253.640625 555.714844 253.613281 555.796875 253.589844 C 555.871094 252.828125 556.507812 252.242188 557.277344 252.242188 L 558.160156 252.242188 C 558.925781 252.242188 559.5625 252.835938 559.636719 253.59375 C 559.804688 253.632812 559.894531 253.664062 559.894531 253.664062 C 559.894531 253.664062 564.601562 254.988281 563.734375 260.632812 C 562.867188 266.28125 566.621094 265.992188 566.621094 265.992188 C 566.621094 265.992188 565.199219 264.929688 566.128906 261.457031 " fill-opacity="1" fill-rule="nonzero"/><path fill="#040606" d="M 566.15625 287.742188 C 566.15625 287.742188 564.417969 286.460938 564.109375 284.339844 C 564.941406 283.523438 565.433594 282.546875 565.433594 281.488281 C 565.433594 278.683594 561.988281 276.40625 557.746094 276.40625 C 553.496094 276.40625 550.054688 278.683594 550.054688 281.488281 C 550.054688 284.296875 553.496094 286.574219 557.746094 286.574219 C 558.546875 286.574219 559.324219 286.488281 560.046875 286.335938 C 560.59375 286.671875 563.035156 288.03125 566.15625 287.742188 " fill-opacity="1" fill-rule="nonzero"/><path fill="#ffffff" d="M 555.371094 281.382812 C 555.371094 282.003906 554.867188 282.507812 554.246094 282.507812 C 553.625 282.507812 553.121094 282.003906 553.121094 281.382812 C 553.121094 280.769531 553.625 280.265625 554.246094 280.265625 C 554.867188 280.265625 555.371094 280.769531 555.371094 281.382812 " fill-opacity="1" fill-rule="nonzero"/><path fill="#ffffff" d="M 558.765625 281.382812 C 558.765625 282.003906 558.261719 282.507812 557.640625 282.507812 C 557.019531 282.507812 556.515625 282.003906 556.515625 281.382812 C 556.515625 280.769531 557.019531 280.265625 557.640625 280.265625 C 558.261719 280.265625 558.765625 280.769531 558.765625 281.382812 " fill-opacity="1" fill-rule="nonzero"/><path fill="#ffffff" d="M 562.15625 281.382812 C 562.15625 282.003906 561.65625 282.507812 561.035156 282.507812 C 560.414062 282.507812 559.910156 282.003906 559.910156 281.382812 C 559.910156 280.769531 560.414062 280.265625 561.035156 280.265625 C 561.65625 280.265625 562.15625 280.769531 562.15625 281.382812 " fill-opacity="1" fill-rule="nonzero"/><path fill="#040606" d="M 900.238281 564.417969 C 882.148438 564.417969 867.484375 549.769531 867.484375 531.699219 C 867.484375 513.628906 882.148438 498.980469 900.238281 498.980469 C 918.324219 498.980469 932.988281 513.628906 932.988281 531.699219 C 932.988281 549.769531 918.324219 564.417969 900.238281 564.417969 Z M 900.238281 494.644531 C 879.753906 494.644531 863.148438 511.234375 863.148438 531.699219 C 863.148438 552.164062 879.753906 568.753906 900.238281 568.753906 C 920.722656 568.753906 937.328125 552.164062 937.328125 531.699219 C 937.328125 511.234375 920.722656 494.644531 900.238281 494.644531 " fill-opacity="1" fill-rule="nonzero"/><path fill="#ffffff" d="M 900.238281 564.417969 C 882.148438 564.417969 867.484375 549.769531 867.484375 531.699219 C 867.484375 513.628906 882.148438 498.980469 900.238281 498.980469 C 918.324219 498.980469 932.988281 513.628906 932.988281 531.699219 C 932.988281 549.769531 918.324219 564.417969 900.238281 564.417969 " fill-opacity="1" fill-rule="nonzero"/><path fill="#040606" d="M 888.84375 529.984375 C 888.84375 533.074219 886.335938 535.578125 883.246094 535.578125 C 880.152344 535.578125 877.644531 533.074219 877.644531 529.984375 C 877.644531 526.894531 880.152344 524.390625 883.246094 524.390625 C 886.335938 524.390625 888.84375 526.894531 888.84375 529.984375 " fill-opacity="1" fill-rule="nonzero"/><path fill="#040606" d="M 873.9375 545.414062 C 873.9375 540.28125 878.109375 536.121094 883.246094 536.121094 C 888.382812 536.121094 892.546875 540.28125 892.546875 545.414062 L 873.9375 545.414062 " fill-opacity="1" fill-rule="nonzero"/><path fill="#040606" d="M 922.832031 529.984375 C 922.832031 533.074219 920.324219 535.578125 917.230469 535.578125 C 914.140625 535.578125 911.632812 533.074219 911.632812 529.984375 C 911.632812 526.894531 914.140625 524.390625 917.230469 524.390625 C 920.324219 524.390625 922.832031 526.894531 922.832031 529.984375 " fill-opacity="1" fill-rule="nonzero"/><path fill="#040606" d="M 907.925781 545.414062 C 907.925781 540.28125 912.097656 536.121094 917.230469 536.121094 C 922.367188 536.121094 926.535156 540.28125 926.535156 545.414062 L 907.925781 545.414062 " fill-opacity="1" fill-rule="nonzero"/><path fill="#040606" d="M 905.566406 520.21875 C 905.566406 523.15625 903.179688 525.542969 900.238281 525.542969 C 897.292969 525.542969 894.910156 523.15625 894.910156 520.21875 C 894.910156 517.28125 897.292969 514.890625 900.238281 514.890625 C 903.179688 514.890625 905.566406 517.28125 905.566406 520.21875 " fill-opacity="1" fill-rule="nonzero"/><path fill="#040606" d="M 891.382812 534.902344 C 891.382812 530.015625 895.347656 526.058594 900.238281 526.058594 C 905.128906 526.058594 909.089844 530.015625 909.089844 534.902344 L 891.382812 534.902344 " fill-opacity="1" fill-rule="nonzero"/><path fill="#040606" d="M 900.238281 514.664062 C 900.792969 514.664062 901.324219 514.742188 901.828125 514.890625 C 901.789062 514.277344 901.277344 513.785156 900.652344 513.785156 L 899.816406 513.785156 C 899.195312 513.785156 898.6875 514.277344 898.648438 514.890625 C 899.152344 514.742188 899.683594 514.664062 900.238281 514.664062 " fill-opacity="1" fill-rule="nonzero"/><path fill="#040606" d="M 908.183594 522.261719 C 909.085938 518.902344 909.160156 511.132812 900.238281 511.132812 C 891.320312 511.132812 891.390625 518.902344 892.285156 522.261719 C 893.164062 525.542969 891.820312 526.550781 891.820312 526.550781 C 891.820312 526.550781 895.367188 526.816406 894.550781 521.476562 C 893.730469 516.144531 898.179688 514.890625 898.179688 514.890625 C 898.261719 514.863281 898.339844 514.839844 898.425781 514.824219 C 898.492188 514.105469 899.097656 513.550781 899.816406 513.550781 L 900.652344 513.550781 C 901.378906 513.550781 901.984375 514.105469 902.050781 514.824219 C 902.207031 514.863281 902.296875 514.890625 902.296875 514.890625 C 902.296875 514.890625 906.746094 516.144531 905.921875 521.476562 C 905.105469 526.816406 908.65625 526.550781 908.65625 526.550781 C 908.65625 526.550781 907.3125 525.542969 908.183594 522.261719 " fill-opacity="1" fill-rule="nonzero"/><path fill="#040606" d="M 908.21875 547.113281 C 908.21875 547.113281 906.574219 545.902344 906.28125 543.894531 C 907.070312 543.128906 907.53125 542.199219 907.53125 541.199219 C 907.53125 538.546875 904.277344 536.394531 900.261719 536.394531 C 896.246094 536.394531 892.996094 538.546875 892.996094 541.199219 C 892.996094 543.855469 896.246094 546.007812 900.261719 546.007812 C 901.019531 546.007812 901.753906 545.929688 902.441406 545.785156 C 902.957031 546.101562 905.261719 547.386719 908.21875 547.113281 " fill-opacity="1" fill-rule="nonzero"/><path fill="#ffffff" d="M 898.019531 541.105469 C 898.019531 541.691406 897.546875 542.167969 896.957031 542.167969 C 896.371094 542.167969 895.894531 541.691406 895.894531 541.105469 C 895.894531 540.515625 896.371094 540.042969 896.957031 540.042969 C 897.546875 540.042969 898.019531 540.515625 898.019531 541.105469 " fill-opacity="1" fill-rule="nonzero"/><path fill="#ffffff" d="M 901.226562 541.105469 C 901.226562 541.691406 900.753906 542.167969 900.164062 542.167969 C 899.578125 542.167969 899.101562 541.691406 899.101562 541.105469 C 899.101562 540.515625 899.578125 540.042969 900.164062 540.042969 C 900.753906 540.042969 901.226562 540.515625 901.226562 541.105469 " fill-opacity="1" fill-rule="nonzero"/><path fill="#ffffff" d="M 904.433594 541.105469 C 904.433594 541.691406 903.960938 542.167969 903.371094 542.167969 C 902.785156 542.167969 902.308594 541.691406 902.308594 541.105469 C 902.308594 540.515625 902.785156 540.042969 903.371094 540.042969 C 903.960938 540.042969 904.433594 540.515625 904.433594 541.105469 " fill-opacity="1" fill-rule="nonzero"/><path fill="#ffffff" d="M 573.371094 510.910156 C 564.003906 510.910156 556.40625 503.324219 556.40625 493.964844 C 556.40625 484.605469 564.003906 477.015625 573.371094 477.015625 C 582.738281 477.015625 590.335938 484.605469 590.335938 493.964844 C 590.335938 503.324219 582.738281 510.910156 573.371094 510.910156 " fill-opacity="1" fill-rule="nonzero"/><path fill="#040606" d="M 573.371094 510.910156 C 564.003906 510.910156 556.40625 503.324219 556.40625 493.964844 C 556.40625 484.605469 564.003906 477.015625 573.371094 477.015625 C 582.738281 477.015625 590.335938 484.605469 590.335938 493.964844 C 590.335938 503.324219 582.738281 510.910156 573.371094 510.910156 Z M 573.371094 474.773438 C 562.761719 474.773438 554.164062 483.367188 554.164062 493.964844 C 554.164062 504.566406 562.761719 513.160156 573.371094 513.160156 C 583.984375 513.160156 592.585938 504.566406 592.585938 493.964844 C 592.585938 483.367188 583.984375 474.773438 573.371094 474.773438 " fill-opacity="1" fill-rule="nonzero"/><path fill="#040606" d="M 578.980469 489.042969 C 578.980469 492.136719 576.472656 494.644531 573.371094 494.644531 C 570.277344 494.644531 567.761719 492.136719 567.761719 489.042969 C 567.761719 485.945312 570.277344 483.441406 573.371094 483.441406 C 576.472656 483.441406 578.980469 485.945312 578.980469 489.042969 " fill-opacity="1" fill-rule="nonzero"/><path fill="#040606" d="M 564.058594 504.492188 C 564.058594 499.355469 568.226562 495.1875 573.371094 495.1875 C 578.519531 495.1875 582.691406 499.355469 582.691406 504.492188 L 564.058594 504.492188 " fill-opacity="1" fill-rule="nonzero"/><path fill="#ffffff" d="M 838.65625 328.238281 C 817.910156 328.238281 801.09375 311.4375 801.09375 290.710938 C 801.09375 269.984375 817.910156 253.179688 838.65625 253.179688 C 859.398438 253.179688 876.214844 269.984375 876.214844 290.710938 C 876.214844 311.4375 859.398438 328.238281 838.65625 328.238281 " fill-opacity="1" fill-rule="nonzero"/><path fill="#040606" d="M 838.65625 328.238281 C 817.910156 328.238281 801.09375 311.4375 801.09375 290.710938 C 801.09375 269.984375 817.910156 253.179688 838.65625 253.179688 C 859.398438 253.179688 876.214844 269.984375 876.214844 290.710938 C 876.214844 311.4375 859.398438 328.238281 838.65625 328.238281 Z M 838.65625 248.210938 C 815.164062 248.210938 796.117188 267.238281 796.117188 290.710938 C 796.117188 314.183594 815.164062 333.210938 838.65625 333.210938 C 862.152344 333.210938 881.199219 314.183594 881.199219 290.710938 C 881.199219 267.238281 862.152344 248.210938 838.65625 248.210938 " fill-opacity="1" fill-rule="nonzero"/><path fill="#040606" d="M 851.078125 279.808594 C 851.078125 286.65625 845.511719 292.214844 838.65625 292.214844 C 831.800781 292.214844 826.238281 286.65625 826.238281 279.808594 C 826.238281 272.957031 831.800781 267.398438 838.65625 267.398438 C 845.511719 267.398438 851.078125 272.957031 851.078125 279.808594 " fill-opacity="1" fill-rule="nonzero"/><path fill="#040606" d="M 818.027344 314.019531 C 818.027344 302.636719 827.261719 293.410156 838.65625 293.410156 C 850.050781 293.410156 859.285156 302.636719 859.285156 314.019531 L 818.027344 314.019531 " fill-opacity="1" fill-rule="nonzero"/><path fill="#ffffff" d="M 675.035156 584.144531 C 658.613281 584.144531 645.300781 570.84375 645.300781 554.4375 C 645.300781 538.027344 658.613281 524.726562 675.035156 524.726562 C 691.460938 524.726562 704.773438 538.027344 704.773438 554.4375 C 704.773438 570.84375 691.460938 584.144531 675.035156 584.144531 " fill-opacity="1" fill-rule="nonzero"/><g clip-path="url(#aedb72aca8)"><path fill="#040606" d="M 675.035156 584.144531 C 658.613281 584.144531 645.300781 570.84375 645.300781 554.4375 C 645.300781 538.027344 658.613281 524.726562 675.035156 524.726562 C 691.460938 524.726562 704.773438 538.027344 704.773438 554.4375 C 704.773438 570.84375 691.460938 584.144531 675.035156 584.144531 Z M 675.035156 520.789062 C 656.4375 520.789062 641.359375 535.855469 641.359375 554.4375 C 641.359375 573.019531 656.4375 588.082031 675.035156 588.082031 C 693.632812 588.082031 708.714844 573.019531 708.714844 554.4375 C 708.714844 535.855469 693.632812 520.789062 675.035156 520.789062 " fill-opacity="1" fill-rule="nonzero"/></g><path fill="#040606" d="M 684.867188 545.804688 C 684.867188 551.230469 680.464844 555.625 675.035156 555.625 C 669.605469 555.625 665.207031 551.230469 665.207031 545.804688 C 665.207031 540.382812 669.605469 535.980469 675.035156 535.980469 C 680.464844 535.980469 684.867188 540.382812 684.867188 545.804688 " fill-opacity="1" fill-rule="nonzero"/><path fill="#040606" d="M 658.703125 572.890625 C 658.703125 563.878906 666.019531 556.574219 675.035156 556.574219 C 684.054688 556.574219 691.367188 563.878906 691.367188 572.890625 L 658.703125 572.890625 " fill-opacity="1" fill-rule="nonzero"/><path fill="#ffffff" d="M 794.746094 566.648438 C 783.648438 566.648438 774.648438 557.660156 774.648438 546.566406 C 774.648438 535.480469 783.648438 526.488281 794.746094 526.488281 C 805.851562 526.488281 814.847656 535.480469 814.847656 546.566406 C 814.847656 557.660156 805.851562 566.648438 794.746094 566.648438 " fill-opacity="1" fill-rule="nonzero"/><path fill="#040606" d="M 794.746094 566.648438 C 783.648438 566.648438 774.648438 557.660156 774.648438 546.566406 C 774.648438 535.480469 783.648438 526.488281 794.746094 526.488281 C 805.851562 526.488281 814.847656 535.480469 814.847656 546.566406 C 814.847656 557.660156 805.851562 566.648438 794.746094 566.648438 Z M 794.746094 523.828125 C 782.175781 523.828125 771.984375 534.007812 771.984375 546.566406 C 771.984375 559.128906 782.175781 569.3125 794.746094 569.3125 C 807.320312 569.3125 817.511719 559.128906 817.511719 546.566406 C 817.511719 534.007812 807.320312 523.828125 794.746094 523.828125 " fill-opacity="1" fill-rule="nonzero"/><path fill="#040606" d="M 801.070312 543.246094 C 801.070312 546.734375 798.238281 549.5625 794.746094 549.5625 C 791.253906 549.5625 788.421875 546.734375 788.421875 543.246094 C 788.421875 539.757812 791.253906 536.925781 794.746094 536.925781 C 798.238281 536.925781 801.070312 539.757812 801.070312 543.246094 " fill-opacity="1" fill-rule="nonzero"/><path fill="#040606" d="M 784.242188 560.671875 C 784.242188 554.875 788.949219 550.179688 794.746094 550.179688 C 800.550781 550.179688 805.25 554.875 805.25 560.671875 L 784.242188 560.671875 " fill-opacity="1" fill-rule="nonzero"/><path fill="#040606" d="M 794.746094 536.652344 C 795.402344 536.652344 796.035156 536.75 796.632812 536.925781 C 796.585938 536.195312 795.984375 535.613281 795.238281 535.613281 L 794.253906 535.613281 C 793.515625 535.613281 792.90625 536.195312 792.867188 536.925781 C 793.460938 536.75 794.089844 536.652344 794.746094 536.652344 " fill-opacity="1" fill-rule="nonzero"/><path fill="#040606" d="M 804.183594 545.671875 C 805.246094 541.683594 805.328125 532.464844 794.746094 532.464844 C 784.164062 532.464844 784.246094 541.683594 785.308594 545.671875 C 786.355469 549.5625 784.757812 550.753906 784.757812 550.753906 C 784.757812 550.753906 788.96875 551.078125 787.996094 544.742188 C 787.023438 538.410156 792.300781 536.925781 792.300781 536.925781 C 792.402344 536.894531 792.496094 536.871094 792.589844 536.84375 C 792.675781 535.992188 793.390625 535.332031 794.253906 535.332031 L 795.238281 535.332031 C 796.101562 535.332031 796.816406 535.992188 796.902344 536.847656 C 797.085938 536.894531 797.191406 536.925781 797.191406 536.925781 C 797.191406 536.925781 802.46875 538.410156 801.496094 544.742188 C 800.527344 551.078125 804.738281 550.753906 804.738281 550.753906 C 804.738281 550.753906 803.140625 549.5625 804.183594 545.671875 " fill-opacity="1" fill-rule="nonzero"/><path fill="#ffffff" d="M 499.445312 439.214844 C 481.246094 439.214844 466.492188 424.476562 466.492188 406.296875 C 466.492188 388.117188 481.246094 373.375 499.445312 373.375 C 517.640625 373.375 532.394531 388.117188 532.394531 406.296875 C 532.394531 424.476562 517.640625 439.214844 499.445312 439.214844 " fill-opacity="1" fill-rule="nonzero"/><path fill="#040606" d="M 499.445312 439.214844 C 481.246094 439.214844 466.492188 424.476562 466.492188 406.296875 C 466.492188 388.117188 481.246094 373.375 499.445312 373.375 C 517.640625 373.375 532.394531 388.117188 532.394531 406.296875 C 532.394531 424.476562 517.640625 439.214844 499.445312 439.214844 Z M 499.445312 369.015625 C 478.832031 369.015625 462.128906 385.707031 462.128906 406.296875 C 462.128906 426.886719 478.832031 443.574219 499.445312 443.574219 C 520.050781 443.574219 536.757812 426.886719 536.757812 406.296875 C 536.757812 385.707031 520.050781 369.015625 499.445312 369.015625 " fill-opacity="1" fill-rule="nonzero"/><path fill="#040606" d="M 509.808594 400.851562 C 509.808594 406.570312 505.171875 411.207031 499.445312 411.207031 C 493.71875 411.207031 489.074219 406.570312 489.074219 400.851562 C 489.074219 395.132812 493.71875 390.492188 499.445312 390.492188 C 505.171875 390.492188 509.808594 395.132812 509.808594 400.851562 " fill-opacity="1" fill-rule="nonzero"/><path fill="#040606" d="M 482.222656 429.414062 C 482.222656 419.914062 489.929688 412.207031 499.445312 412.207031 C 508.953125 412.207031 516.667969 419.914062 516.667969 429.414062 L 482.222656 429.414062 " fill-opacity="1" fill-rule="nonzero"/><path fill="#040606" d="M 499.445312 390.039062 C 500.515625 390.039062 501.550781 390.199219 502.527344 390.492188 C 502.460938 389.296875 501.472656 388.332031 500.257812 388.332031 L 498.632812 388.332031 C 497.417969 388.332031 496.421875 389.296875 496.355469 390.492188 C 497.335938 390.199219 498.371094 390.039062 499.445312 390.039062 " fill-opacity="1" fill-rule="nonzero"/><path fill="#040606" d="M 514.910156 404.820312 C 516.65625 398.292969 516.789062 383.179688 499.445312 383.179688 C 482.097656 383.179688 482.230469 398.292969 483.976562 404.820312 C 485.683594 411.207031 483.070312 413.164062 483.070312 413.164062 C 483.070312 413.164062 489.96875 413.691406 488.378906 403.308594 C 486.785156 392.917969 495.4375 390.492188 495.4375 390.492188 C 495.59375 390.441406 495.75 390.398438 495.914062 390.351562 C 496.054688 388.960938 497.222656 387.878906 498.632812 387.878906 L 500.257812 387.878906 C 501.667969 387.878906 502.84375 388.960938 502.976562 390.359375 C 503.277344 390.4375 503.453125 390.492188 503.453125 390.492188 C 503.453125 390.492188 512.097656 392.917969 510.511719 403.308594 C 508.914062 413.691406 515.820312 413.164062 515.820312 413.164062 C 515.820312 413.164062 513.203125 411.207031 514.910156 404.820312 " fill-opacity="1" fill-rule="nonzero"/><path fill="#ffffff" d="M 657.488281 436.875 C 631.332031 436.875 610.125 415.691406 610.125 389.558594 C 610.125 363.425781 631.332031 342.238281 657.488281 342.238281 C 683.648438 342.238281 704.851562 363.425781 704.851562 389.558594 C 704.851562 415.691406 683.648438 436.875 657.488281 436.875 " fill-opacity="1" fill-rule="nonzero"/><path fill="#040606" d="M 657.488281 436.875 C 631.332031 436.875 610.125 415.691406 610.125 389.558594 C 610.125 363.425781 631.332031 342.238281 657.488281 342.238281 C 683.648438 342.238281 704.851562 363.425781 704.851562 389.558594 C 704.851562 415.691406 683.648438 436.875 657.488281 436.875 Z M 657.488281 335.964844 C 627.867188 335.964844 603.851562 359.964844 603.851562 389.558594 C 603.851562 419.152344 627.867188 443.144531 657.488281 443.144531 C 687.117188 443.144531 711.132812 419.152344 711.132812 389.558594 C 711.132812 359.964844 687.117188 335.964844 657.488281 335.964844 " fill-opacity="1" fill-rule="nonzero"/><path fill="#040606" d="M 677.054688 421.488281 L 637.929688 421.488281 C 636.976562 421.488281 636.199219 420.71875 636.199219 419.761719 L 636.199219 359.347656 C 636.199219 358.398438 636.976562 357.625 637.929688 357.625 L 677.054688 357.625 C 678.007812 357.625 678.777344 358.398438 678.777344 359.347656 L 678.777344 419.761719 C 678.777344 420.71875 678.007812 421.488281 677.054688 421.488281 " fill-opacity="1" fill-rule="nonzero"/><path fill="#ffffff" d="M 672.363281 410.652344 L 642.617188 410.652344 C 641.644531 410.652344 640.851562 409.867188 640.851562 408.894531 L 640.851562 364.308594 C 640.851562 363.335938 641.644531 362.546875 642.617188 362.546875 L 672.363281 362.546875 C 673.339844 362.546875 674.128906 363.335938 674.128906 364.308594 L 674.128906 408.894531 C 674.128906 409.867188 673.339844 410.652344 672.363281 410.652344 " fill-opacity="1" fill-rule="nonzero"/><path fill="#ffffff" d="M 660.167969 416.363281 C 660.167969 417.839844 658.972656 419.035156 657.488281 419.035156 C 656.011719 419.035156 654.8125 417.839844 654.8125 416.363281 C 654.8125 414.882812 656.011719 413.683594 657.488281 413.683594 C 658.972656 413.683594 660.167969 414.882812 660.167969 416.363281 " fill-opacity="1" fill-rule="nonzero"/><path fill="#ffffff" d="M 930.382812 442.613281 C 907.292969 442.613281 888.578125 423.917969 888.578125 400.851562 C 888.578125 377.78125 907.292969 359.085938 930.382812 359.085938 C 953.472656 359.085938 972.1875 377.78125 972.1875 400.851562 C 972.1875 423.917969 953.472656 442.613281 930.382812 442.613281 " fill-opacity="1" fill-rule="nonzero"/><path fill="#040606" d="M 930.382812 442.613281 C 907.292969 442.613281 888.578125 423.917969 888.578125 400.851562 C 888.578125 377.78125 907.292969 359.085938 930.382812 359.085938 C 953.472656 359.085938 972.1875 377.78125 972.1875 400.851562 C 972.1875 423.917969 953.472656 442.613281 930.382812 442.613281 Z M 930.382812 353.550781 C 904.238281 353.550781 883.039062 374.730469 883.039062 400.851562 C 883.039062 426.976562 904.238281 448.148438 930.382812 448.148438 C 956.527344 448.148438 977.730469 426.976562 977.730469 400.851562 C 977.730469 374.730469 956.527344 353.550781 930.382812 353.550781 " fill-opacity="1" fill-rule="nonzero"/><path fill="#040606" d="M 947.652344 429.03125 L 913.121094 429.03125 C 912.277344 429.03125 911.59375 428.351562 911.59375 427.511719 L 911.59375 374.1875 C 911.59375 373.347656 912.277344 372.667969 913.121094 372.667969 L 947.652344 372.667969 C 948.492188 372.667969 949.175781 373.347656 949.175781 374.1875 L 949.175781 427.511719 C 949.175781 428.351562 948.492188 429.03125 947.652344 429.03125 " fill-opacity="1" fill-rule="nonzero"/><path fill="#ffffff" d="M 943.511719 419.472656 L 917.257812 419.472656 C 916.394531 419.472656 915.695312 418.777344 915.695312 417.917969 L 915.695312 378.566406 C 915.695312 377.710938 916.394531 377.011719 917.257812 377.011719 L 943.511719 377.011719 C 944.371094 377.011719 945.070312 377.710938 945.070312 378.566406 L 945.070312 417.917969 C 945.070312 418.777344 944.371094 419.472656 943.511719 419.472656 " fill-opacity="1" fill-rule="nonzero"/><path fill="#ffffff" d="M 932.75 424.507812 C 932.75 425.8125 931.691406 426.867188 930.382812 426.867188 C 929.078125 426.867188 928.019531 425.8125 928.019531 424.507812 C 928.019531 423.199219 929.078125 422.144531 930.382812 422.144531 C 931.691406 422.144531 932.75 423.199219 932.75 424.507812 " fill-opacity="1" fill-rule="nonzero"/><path fill="#ffffff" d="M 689.339844 274.082031 C 675.855469 274.082031 664.921875 263.160156 664.921875 249.691406 C 664.921875 236.21875 675.855469 225.296875 689.339844 225.296875 C 702.828125 225.296875 713.757812 236.21875 713.757812 249.691406 C 713.757812 263.160156 702.828125 274.082031 689.339844 274.082031 " fill-opacity="1" fill-rule="nonzero"/><path fill="#040606" d="M 689.339844 274.082031 C 675.855469 274.082031 664.921875 263.160156 664.921875 249.691406 C 664.921875 236.21875 675.855469 225.296875 689.339844 225.296875 C 702.828125 225.296875 713.757812 236.21875 713.757812 249.691406 C 713.757812 263.160156 702.828125 274.082031 689.339844 274.082031 Z M 689.339844 222.058594 C 674.066406 222.058594 661.6875 234.433594 661.6875 249.691406 C 661.6875 264.945312 674.066406 277.3125 689.339844 277.3125 C 704.613281 277.3125 716.992188 264.945312 716.992188 249.691406 C 716.992188 234.433594 704.613281 222.058594 689.339844 222.058594 " fill-opacity="1" fill-rule="nonzero"/><path fill="#040606" d="M 702.515625 258.359375 L 676.171875 258.359375 C 675.542969 258.359375 675.035156 257.851562 675.035156 257.222656 L 675.035156 239.199219 C 675.035156 238.570312 675.542969 238.066406 676.171875 238.066406 L 702.515625 238.066406 C 703.136719 238.066406 703.644531 238.570312 703.644531 239.199219 L 703.644531 257.222656 C 703.644531 257.851562 703.136719 258.359375 702.515625 258.359375 " fill-opacity="1" fill-rule="nonzero"/><path fill="#ffffff" d="M 700.800781 256.652344 L 677.882812 256.652344 C 677.347656 256.652344 676.914062 256.222656 676.914062 255.691406 L 676.914062 240.734375 C 676.914062 240.203125 677.347656 239.773438 677.882812 239.773438 L 700.800781 239.773438 C 701.332031 239.773438 701.765625 240.203125 701.765625 240.734375 L 701.765625 255.691406 C 701.765625 256.222656 701.332031 256.652344 700.800781 256.652344 " fill-opacity="1" fill-rule="nonzero"/><path fill="#040606" d="M 694.113281 263.476562 C 693.828125 263.132812 692.859375 261.742188 692.835938 258.359375 L 685.847656 258.359375 C 685.824219 261.742188 684.855469 263.132812 684.570312 263.476562 C 684.453125 263.585938 684.386719 263.703125 684.386719 263.828125 C 684.386719 264.542969 686.601562 265.128906 689.339844 265.128906 C 692.074219 265.128906 694.296875 264.542969 694.296875 263.828125 C 694.296875 263.703125 694.230469 263.585938 694.113281 263.476562 " fill-opacity="1" fill-rule="nonzero"/><path fill="#ffffff" d="M 798.175781 463.210938 C 781.761719 463.210938 768.460938 449.921875 768.460938 433.523438 C 768.460938 417.121094 781.761719 403.828125 798.175781 403.828125 C 814.59375 403.828125 827.902344 417.121094 827.902344 433.523438 C 827.902344 449.921875 814.59375 463.210938 798.175781 463.210938 " fill-opacity="1" fill-rule="nonzero"/><path fill="#040606" d="M 798.175781 463.210938 C 781.761719 463.210938 768.460938 449.921875 768.460938 433.523438 C 768.460938 417.121094 781.761719 403.828125 798.175781 403.828125 C 814.59375 403.828125 827.902344 417.121094 827.902344 433.523438 C 827.902344 449.921875 814.59375 463.210938 798.175781 463.210938 Z M 798.175781 399.894531 C 779.589844 399.894531 764.519531 414.949219 764.519531 433.523438 C 764.519531 452.089844 779.589844 467.148438 798.175781 467.148438 C 816.769531 467.148438 831.835938 452.089844 831.835938 433.523438 C 831.835938 414.949219 816.769531 399.894531 798.175781 399.894531 " fill-opacity="1" fill-rule="nonzero"/><path fill="#040606" d="M 814.210938 444.074219 L 782.148438 444.074219 C 781.386719 444.074219 780.765625 443.453125 780.765625 442.691406 L 780.765625 420.75 C 780.765625 419.992188 781.386719 419.375 782.148438 419.375 L 814.210938 419.375 C 814.972656 419.375 815.589844 419.992188 815.589844 420.75 L 815.589844 442.691406 C 815.589844 443.453125 814.972656 444.074219 814.210938 444.074219 " fill-opacity="1" fill-rule="nonzero"/><path fill="#ffffff" d="M 812.128906 442 L 784.230469 442 C 783.582031 442 783.054688 441.472656 783.054688 440.824219 L 783.054688 422.621094 C 783.054688 421.96875 783.582031 421.445312 784.230469 421.445312 L 812.128906 421.445312 C 812.773438 421.445312 813.300781 421.96875 813.300781 422.621094 L 813.300781 440.824219 C 813.300781 441.472656 812.773438 442 812.128906 442 " fill-opacity="1" fill-rule="nonzero"/><path fill="#040606" d="M 803.988281 450.296875 C 803.640625 449.882812 802.457031 448.1875 802.429688 444.074219 L 793.921875 444.074219 C 793.894531 448.1875 792.71875 449.882812 792.375 450.296875 C 792.226562 450.429688 792.148438 450.574219 792.148438 450.726562 C 792.148438 451.605469 794.847656 452.3125 798.175781 452.3125 C 801.507812 452.3125 804.210938 451.605469 804.210938 450.726562 C 804.210938 450.574219 804.132812 450.429688 803.988281 450.296875 " fill-opacity="1" fill-rule="nonzero"/><path fill="#040606" d="M 698.859375 531.230469 L 697.449219 528.734375 L 759.488281 493.808594 L 681.398438 436.375 L 683.097656 434.066406 L 762.972656 492.8125 C 763.359375 493.101562 763.585938 493.566406 763.550781 494.054688 C 763.523438 494.539062 763.25 494.976562 762.824219 495.210938 L 698.859375 531.230469 " fill-opacity="1" fill-rule="nonzero"/><path fill="#040606" d="M 794.746094 526.242188 C 794.386719 526.242188 794.035156 526.113281 793.761719 525.851562 L 761.136719 495.003906 C 760.820312 494.707031 760.65625 494.28125 760.695312 493.847656 C 760.730469 493.414062 760.960938 493.023438 761.324219 492.777344 L 804.449219 463.730469 L 806.058594 466.109375 L 764.40625 494.152344 L 794.898438 522.984375 L 865.730469 475.003906 C 866.304688 474.617188 867.070312 474.695312 867.558594 475.1875 L 889.867188 497.976562 L 887.820312 499.980469 L 866.351562 478.046875 L 795.550781 525.996094 C 795.304688 526.164062 795.027344 526.242188 794.746094 526.242188 " fill-opacity="1" fill-rule="nonzero"/><path fill="#040606" d="M 867.800781 476.859375 L 865.265625 475.523438 L 891.949219 424.890625 L 894.484375 426.226562 L 867.800781 476.859375 " fill-opacity="1" fill-rule="nonzero"/><path fill="#040606" d="M 768.660156 493.96875 C 768.660156 497.574219 765.734375 500.5 762.125 500.5 C 758.507812 500.5 755.582031 497.574219 755.582031 493.96875 C 755.582031 490.363281 758.507812 487.433594 762.125 487.433594 C 765.734375 487.433594 768.660156 490.363281 768.660156 493.96875 " fill-opacity="1" fill-rule="nonzero"/><path fill="#040606" d="M 606.160156 455.253906 C 606.160156 458.867188 603.234375 461.792969 599.625 461.792969 C 596.015625 461.792969 593.089844 458.867188 593.089844 455.253906 C 593.089844 451.648438 596.015625 448.726562 599.625 448.726562 C 603.234375 448.726562 606.160156 451.648438 606.160156 455.253906 " fill-opacity="1" fill-rule="nonzero"/><path fill="#040606" d="M 576.308594 406.296875 C 576.308594 409.90625 573.382812 412.828125 569.773438 412.828125 C 566.15625 412.828125 563.230469 409.90625 563.230469 406.296875 C 563.230469 402.6875 566.15625 399.761719 569.773438 399.761719 C 573.382812 399.761719 576.308594 402.6875 576.308594 406.296875 " fill-opacity="1" fill-rule="nonzero"/><path fill="#040606" d="M 642.617188 316.414062 C 642.617188 320.023438 639.691406 322.949219 636.074219 322.949219 C 632.464844 322.949219 629.539062 320.023438 629.539062 316.414062 C 629.539062 312.808594 632.464844 309.882812 636.074219 309.882812 C 639.691406 309.882812 642.617188 312.808594 642.617188 316.414062 " fill-opacity="1" fill-rule="nonzero"/><path fill="#040606" d="M 873.070312 476.1875 C 873.070312 479.800781 870.144531 482.726562 866.535156 482.726562 C 862.917969 482.726562 859.992188 479.800781 859.992188 476.1875 C 859.992188 472.582031 862.917969 469.660156 866.535156 469.660156 C 870.144531 469.660156 873.070312 472.582031 873.070312 476.1875 " fill-opacity="1" fill-rule="nonzero"/><path fill="#040606" d="M 840.980469 386.601562 C 840.980469 390.210938 838.054688 393.136719 834.4375 393.136719 C 830.828125 393.136719 827.902344 390.210938 827.902344 386.601562 C 827.902344 382.992188 830.828125 380.070312 834.4375 380.070312 C 838.054688 380.070312 840.980469 382.992188 840.980469 386.601562 " fill-opacity="1" fill-rule="nonzero"/><path fill="#040606" d="M 761.316406 388.695312 C 761.316406 392.308594 758.390625 395.234375 754.78125 395.234375 C 751.164062 395.234375 748.238281 392.308594 748.238281 388.695312 C 748.238281 385.089844 751.164062 382.167969 754.78125 382.167969 C 758.390625 382.167969 761.316406 385.089844 761.316406 388.695312 " fill-opacity="1" fill-rule="nonzero"/><path fill="#040606" d="M 762.125 321.703125 C 762.125 325.3125 759.195312 328.238281 755.582031 328.238281 C 751.972656 328.238281 749.042969 325.3125 749.042969 321.703125 C 749.042969 318.097656 751.972656 315.171875 755.582031 315.171875 C 759.195312 315.171875 762.125 318.097656 762.125 321.703125 " fill-opacity="1" fill-rule="nonzero"/><path fill="#040606" d="M 865.421875 477.089844 L 829.421875 432.621094 C 829.1875 432.335938 829.078125 431.972656 829.109375 431.605469 L 837.230469 331.332031 L 840.085938 331.558594 L 832.007812 431.269531 L 867.648438 475.289062 L 865.421875 477.089844 " fill-opacity="1" fill-rule="nonzero"/><path fill="#040606" d="M 886.160156 397.261719 L 833.941406 388.007812 C 833.695312 387.96875 833.46875 387.863281 833.277344 387.703125 L 697.269531 275.183594 L 699.101562 272.980469 L 834.8125 385.257812 L 886.664062 394.445312 L 886.160156 397.261719 " fill-opacity="1" fill-rule="nonzero"/><path fill="#040606" d="M 705.25 407.644531 L 704.300781 404.945312 L 753.359375 387.679688 L 754.113281 324.46875 L 702.09375 363.6875 L 700.363281 361.40625 L 754.71875 320.425781 C 755.15625 320.097656 755.742188 320.046875 756.230469 320.292969 C 756.71875 320.539062 757.019531 321.035156 757.015625 321.585938 L 756.214844 388.714844 C 756.207031 389.316406 755.820312 389.847656 755.257812 390.050781 L 705.25 407.644531 " fill-opacity="1" fill-rule="nonzero"/><path fill="#040606" d="M 669.046875 521.835938 L 647.578125 443.765625 L 600.371094 457.011719 L 580.070312 477.144531 C 579.683594 477.527344 579.113281 477.660156 578.597656 477.484375 C 578.082031 477.308594 577.714844 476.859375 577.640625 476.316406 L 568.351562 406.488281 C 568.328125 406.332031 568.335938 406.175781 568.363281 406.03125 L 592.722656 279.53125 C 592.824219 279.035156 593.183594 278.621094 593.664062 278.453125 C 594.152344 278.285156 594.6875 278.390625 595.074219 278.726562 L 636.136719 314.460938 L 677.769531 273.070312 L 679.792969 275.097656 L 637.210938 317.429688 C 636.679688 317.960938 635.828125 317.988281 635.265625 317.492188 L 595.070312 282.519531 L 571.222656 406.335938 L 580.105469 473.082031 L 598.617188 454.71875 C 598.792969 454.546875 599.003906 454.421875 599.238281 454.355469 L 648.1875 440.617188 C 648.554688 440.515625 648.953125 440.5625 649.285156 440.75 C 649.613281 440.941406 649.859375 441.25 649.960938 441.617188 L 671.8125 521.082031 L 669.046875 521.835938 " fill-opacity="1" fill-rule="nonzero"/><path fill="#040606" d="M 598.398438 456.472656 L 568.960938 407.730469 L 533.960938 407.730469 L 533.960938 404.867188 L 569.773438 404.867188 C 570.269531 404.867188 570.734375 405.128906 571 405.558594 L 600.851562 454.992188 L 598.398438 456.472656 " fill-opacity="1" fill-rule="nonzero"/><path fill="#040606" d="M 641.230469 341.46875 L 634.816406 316.777344 L 637.585938 316.054688 L 644.007812 340.746094 L 641.230469 341.46875 " fill-opacity="1" fill-rule="nonzero"/><path fill="#040606" d="M 767.128906 423.402344 L 753.449219 389.226562 L 756.113281 388.164062 L 769.789062 422.339844 L 767.128906 423.402344 " fill-opacity="1" fill-rule="nonzero"/></svg>